STARTFONT 2.1
COMMENT "14-point 3270 font"
COMMENT "Uses nonstandard ordering:"
COMMENT " Page 0: EBCDIC US-International set, CG order"
COMMENT " Page 1: EBCDIC APL/APL2 set, CG order"
COMMENT " Page 2: (first 16 characters only) DEC line-drawing characters from"
COMMENT "  fixed-width X fonts"
COMMENT ""
COMMENT "Copyright (c) 1993-2009, Paul Mattes."
COMMENT "Copyright (c) 1990, Jeff Sparkes."
COMMENT "Copyright (c) 1989, Georgia Tech Research Corporation (GTRC),"
COMMENT " Atlanta, GA 30332."
COMMENT "All rights reserved."
COMMENT ""
COMMENT "Redistribution and use in source and binary forms, with or"
COMMENT "without modification, are permitted provided that the following"
COMMENT "conditions are met:"
COMMENT "    * Redistributions of source code must retain the above"
COMMENT "      copyright notice, this list of conditions and the following"
COMMENT "      disclaimer."
COMMENT "    * Redistributions in binary form must reproduce the above"
COMMENT "      copyright notice, this list of conditions and the following"
COMMENT "      disclaimer in the documentation and/or other materials"
COMMENT "      provided with the distribution."
COMMENT "    * Neither the names of Paul Mattes, Jeff Sparkes, GTRC"
COMMENT "      nor their contributors may be used to endorse or promote"
COMMENT "      products derived from this software without specific prior"
COMMENT "      written permission."
COMMENT ""
COMMENT "THIS SOFTWARE IS PROVIDED BY PAUL MATTES, JEFF SPARKES AND GTRC"
COMMENT "'AS IS' AND ANY EXPRESS OR IMPLIED WARRANTIES, INCLUDING, BUT"
COMMENT "NOT LIMITED TO, THE IMPLIED WARRANTIES OF MERCHANTABILITY AND"
COMMENT "FITNESS FOR A PARTICULAR PURPOSE ARE DISCLAIMED. IN NO EVENT"
COMMENT "SHALL PAUL MATTES, JEFF SPARKES OR GTRC BE LIABLE FOR ANY DIRECT,"
COMMENT "INDIRECT, INCIDENTAL, SPECIAL, EXEMPLARY, OR CONSEQUENTIAL"
COMMENT "DAMAGES (INCLUDING, BUT NOT LIMITED TO, PROCUREMENT OF SUBSTITUTE"

STARTCHAR null
ENCODING 0
SWIDTH 562 0
DWIDTH 9 0
BBX 9 14 0 -3
BITMAP
0000
0000
0000
0000
0000
0000
0000
0000
0000
0000
0000
0000
0000
0000
ENDCHAR
STARTCHAR nobreakspace
ENCODING 1
SWIDTH 562 0
DWIDTH 9 0
BBX 9 14 0 -3
BITMAP
0000
0000
0000
0000
0000
0000
0000
0000
0000
0000
0000
0000
0000
0000
ENDCHAR
STARTCHAR euro
ENCODING 2
SWIDTH 562 0
DWIDTH 9 0
BBX 9 14 0 -3
BITMAP
0000
0000
1e00
2100
2000
de00
2000
dc00
2000
2100
1e00
0000
0000
0000
ENDCHAR
STARTCHAR cr
ENCODING 3
SWIDTH 562 0
DWIDTH 9 0
BBX 9 14 0 -3
BITMAP
0000
0000
0000
0000
0000
0000
0000
0000
0000
0000
0000
0000
0000
0000
ENDCHAR
STARTCHAR nl
ENCODING 4
SWIDTH 562 0
DWIDTH 9 0
BBX 9 14 0 -3
BITMAP
0000
0000
0000
0000
0000
0000
0000
0000
0000
0000
0000
0000
0000
0000
ENDCHAR
STARTCHAR em
ENCODING 5
SWIDTH 562 0
DWIDTH 9 0
BBX 9 14 0 -3
BITMAP
0000
0000
0000
0000
0000
0000
0000
0000
0000
0000
0000
0000
0000
0000
ENDCHAR
STARTCHAR eightones
ENCODING 6
SWIDTH 562 0
DWIDTH 9 0
BBX 9 14 0 -3
BITMAP
0000
0000
0000
1c00
3e00
7f00
7f00
7f00
3e00
1c00
0000
0000
0000
0000
ENDCHAR
STARTCHAR hyphen
ENCODING 7
SWIDTH 562 0
DWIDTH 9 0
BBX 9 14 0 -3
BITMAP
0000
0000
0000
0000
0000
0000
3e00
0000
0000
0000
0000
0000
0000
0000
ENDCHAR
STARTCHAR greater
ENCODING 8
SWIDTH 562 0
DWIDTH 9 0
BBX 9 14 0 -3
BITMAP
0000
0000
2000
1000
0800
0400
0200
0400
0800
1000
2000
0000
0000
0000
ENDCHAR
STARTCHAR less
ENCODING 9
SWIDTH 562 0
DWIDTH 9 0
BBX 9 14 0 -3
BITMAP
0000
0000
0200
0400
0800
1000
2000
1000
0800
0400
0200
0000
0000
0000
ENDCHAR
STARTCHAR bracketleft
ENCODING 10
SWIDTH 562 0
DWIDTH 9 0
BBX 9 14 0 -3
BITMAP
0000
1c00
1000
1000
1000
1000
1000
1000
1000
1000
1000
1c00
0000
0000
ENDCHAR
STARTCHAR bracketright
ENCODING 11
SWIDTH 562 0
DWIDTH 9 0
BBX 9 14 0 -3
BITMAP
0000
1c00
0400
0400
0400
0400
0400
0400
0400
0400
0400
1c00
0000
0000
ENDCHAR
STARTCHAR parenright
ENCODING 12
SWIDTH 562 0
DWIDTH 9 0
BBX 9 14 0 -3
BITMAP
0000
0000
1000
0800
0400
0400
0400
0400
0400
0800
1000
0000
0000
0000
ENDCHAR
STARTCHAR parenleft
ENCODING 13
SWIDTH 562 0
DWIDTH 9 0
BBX 9 14 0 -3
BITMAP
0000
0000
0400
0800
1000
1000
1000
1000
1000
0800
0400
0000
0000
0000
ENDCHAR
STARTCHAR braceright
ENCODING 14
SWIDTH 562 0
DWIDTH 9 0
BBX 9 14 0 -3
BITMAP
0000
3000
0800
0800
0800
0800
0400
0800
0800
0800
0800
3000
0000
0000
ENDCHAR
STARTCHAR braceleft
ENCODING 15
SWIDTH 562 0
DWIDTH 9 0
BBX 9 14 0 -3
BITMAP
0000
0c00
1000
1000
1000
1000
2000
1000
1000
1000
1000
0c00
0000
0000
ENDCHAR
STARTCHAR space
ENCODING 16
SWIDTH 562 0
DWIDTH 9 0
BBX 9 14 0 -3
BITMAP
0000
0000
0000
0000
0000
0000
0000
0000
0000
0000
0000
0000
0000
0000
ENDCHAR
STARTCHAR equal
ENCODING 17
SWIDTH 562 0
DWIDTH 9 0
BBX 9 14 0 -3
BITMAP
0000
0000
0000
0000
7f00
0000
0000
7f00
0000
0000
0000
0000
0000
0000
ENDCHAR
STARTCHAR apostrophe
ENCODING 18
SWIDTH 562 0
DWIDTH 9 0
BBX 9 14 0 -3
BITMAP
0000
0800
0800
0800
0000
0000
0000
0000
0000
0000
0000
0000
0000
0000
ENDCHAR
STARTCHAR quotedbl
ENCODING 19
SWIDTH 562 0
DWIDTH 9 0
BBX 9 14 0 -3
BITMAP
0000
2400
2400
2400
0000
0000
0000
0000
0000
0000
0000
0000
0000
0000
ENDCHAR
STARTCHAR slash
ENCODING 20
SWIDTH 562 0
DWIDTH 9 0
BBX 9 14 0 -3
BITMAP
0000
0000
0000
0100
0200
0400
0800
1000
2000
4000
0000
0000
0000
0000
ENDCHAR
STARTCHAR backslash
ENCODING 21
SWIDTH 562 0
DWIDTH 9 0
BBX 9 14 0 -3
BITMAP
0000
0000
0000
4000
2000
1000
0800
0400
0200
0100
0000
0000
0000
0000
ENDCHAR
STARTCHAR bar
ENCODING 22
SWIDTH 562 0
DWIDTH 9 0
BBX 9 14 0 -3
BITMAP
0800
0800
0800
0800
0800
0800
0800
0800
0800
0800
0800
0800
0800
0000
ENDCHAR
STARTCHAR brokenbar
ENCODING 23
SWIDTH 562 0
DWIDTH 9 0
BBX 9 14 0 -3
BITMAP
0000
0800
0800
0800
0800
0800
0000
0000
0800
0800
0800
0800
0800
0000
ENDCHAR
STARTCHAR question
ENCODING 24
SWIDTH 562 0
DWIDTH 9 0
BBX 9 14 0 -3
BITMAP
0000
1e00
2100
2100
0200
0400
0800
0800
0000
0000
0800
0000
0000
0000
ENDCHAR
STARTCHAR exclam
ENCODING 25
SWIDTH 562 0
DWIDTH 9 0
BBX 9 14 0 -3
BITMAP
0000
0800
0800
0800
0800
0800
0800
0800
0000
0000
0800
0000
0000
0000
ENDCHAR
STARTCHAR dollar
ENCODING 26
SWIDTH 562 0
DWIDTH 9 0
BBX 9 14 0 -3
BITMAP
0000
0800
0800
3f00
4800
4800
3e00
0900
0900
7e00
0800
0800
0000
0000
ENDCHAR
STARTCHAR cent
ENCODING 27
SWIDTH 562 0
DWIDTH 9 0
BBX 9 14 0 -3
BITMAP
0000
0800
0800
3e00
4800
4800
4800
3e00
0800
0800
0000
0000
0000
0000
ENDCHAR
STARTCHAR sterling
ENCODING 28
SWIDTH 562 0
DWIDTH 9 0
BBX 9 14 0 -3
BITMAP
0000
0c00
1200
1000
1000
7c00
1000
1000
1000
7100
6e00
0000
0000
0000
ENDCHAR
STARTCHAR yen
ENCODING 29
SWIDTH 562 0
DWIDTH 9 0
BBX 9 14 0 -3
BITMAP
0000
4100
2200
1400
0800
7f00
0800
0800
7f00
0800
0800
0000
0000
0000
ENDCHAR
STARTCHAR paragraph
ENCODING 30
SWIDTH 562 0
DWIDTH 9 0
BBX 9 14 0 -3
BITMAP
0000
7800
4400
4400
4400
7800
4000
4400
4e00
4400
4400
0400
0000
0000
ENDCHAR
STARTCHAR currency
ENCODING 31
SWIDTH 562 0
DWIDTH 9 0
BBX 9 14 0 -3
BITMAP
0000
0000
4100
2200
1c00
2200
2200
2200
1c00
2200
4100
0000
0000
0000
ENDCHAR
STARTCHAR 0
ENCODING 32
SWIDTH 562 0
DWIDTH 9 0
BBX 9 14 0 -3
BITMAP
0000
1c00
2200
4100
4100
4900
4900
4100
4100
2200
1c00
0000
0000
0000
ENDCHAR
STARTCHAR 1
ENCODING 33
SWIDTH 562 0
DWIDTH 9 0
BBX 9 14 0 -3
BITMAP
0000
0800
1800
2800
0800
0800
0800
0800
0800
0800
0800
0000
0000
0000
ENDCHAR
STARTCHAR 2
ENCODING 34
SWIDTH 562 0
DWIDTH 9 0
BBX 9 14 0 -3
BITMAP
0000
1e00
2100
4100
0100
0200
0400
0800
1000
2000
7f00
0000
0000
0000
ENDCHAR
STARTCHAR 3
ENCODING 35
SWIDTH 562 0
DWIDTH 9 0
BBX 9 14 0 -3
BITMAP
0000
3f00
0100
0200
0400
0c00
0200
0100
0100
4200
3c00
0000
0000
0000
ENDCHAR
STARTCHAR 4
ENCODING 36
SWIDTH 562 0
DWIDTH 9 0
BBX 9 14 0 -3
BITMAP
0000
0600
0a00
1200
2200
4200
4200
7f00
0200
0200
0200
0000
0000
0000
ENDCHAR
STARTCHAR 5
ENCODING 37
SWIDTH 562 0
DWIDTH 9 0
BBX 9 14 0 -3
BITMAP
0000
7f00
4000
4000
7c00
0200
0100
0100
0100
0200
7c00
0000
0000
0000
ENDCHAR
STARTCHAR 6
ENCODING 38
SWIDTH 562 0
DWIDTH 9 0
BBX 9 14 0 -3
BITMAP
0000
1000
2000
4000
4000
5c00
6200
4100
4100
2200
1c00
0000
0000
0000
ENDCHAR
STARTCHAR 7
ENCODING 39
SWIDTH 562 0
DWIDTH 9 0
BBX 9 14 0 -3
BITMAP
0000
7f00
0100
0200
0400
0800
1000
1000
1000
1000
1000
0000
0000
0000
ENDCHAR
STARTCHAR 8
ENCODING 40
SWIDTH 562 0
DWIDTH 9 0
BBX 9 14 0 -3
BITMAP
0000
1c00
2200
2200
2200
1c00
2200
4100
4100
2200
1c00
0000
0000
0000
ENDCHAR
STARTCHAR 9
ENCODING 41
SWIDTH 562 0
DWIDTH 9 0
BBX 9 14 0 -3
BITMAP
0000
1e00
2100
4100
4300
4500
3900
0100
0100
0100
0200
0000
0000
0000
ENDCHAR
STARTCHAR ssharp
ENCODING 42
SWIDTH 562 0
DWIDTH 9 0
BBX 9 14 0 -3
BITMAP
0000
1800
2400
4400
4800
4400
4200
4100
4100
5100
4e00
0000
0000
0000
ENDCHAR
STARTCHAR section
ENCODING 43
SWIDTH 562 0
DWIDTH 9 0
BBX 9 14 0 -3
BITMAP
0000
1c00
2000
2000
5000
4800
4400
2200
1200
0a00
0400
0400
3800
0000
ENDCHAR
STARTCHAR numbersign
ENCODING 44
SWIDTH 562 0
DWIDTH 9 0
BBX 9 14 0 -3
BITMAP
0000
0000
2400
7e00
2400
2400
7e00
2400
0000
0000
0000
0000
0000
0000
ENDCHAR
STARTCHAR at
ENCODING 45
SWIDTH 562 0
DWIDTH 9 0
BBX 9 14 0 -3
BITMAP
0000
3e00
4100
4100
4d00
5500
5e00
4000
4000
4000
3f00
0000
0000
0000
ENDCHAR
STARTCHAR percent
ENCODING 46
SWIDTH 562 0
DWIDTH 9 0
BBX 9 14 0 -3
BITMAP
0000
2000
5000
2100
0200
0400
0800
1000
2000
4200
0500
0200
0000
0000
ENDCHAR
STARTCHAR underscore
ENCODING 47
SWIDTH 562 0
DWIDTH 9 0
BBX 9 14 0 -3
BITMAP
0000
0000
0000
0000
0000
0000
0000
0000
0000
0000
0000
7f00
0000
0000
ENDCHAR
STARTCHAR ampersand
ENCODING 48
SWIDTH 562 0
DWIDTH 9 0
BBX 9 14 0 -3
BITMAP
0000
0000
3000
4800
4800
4800
3000
5100
4a00
4400
3a00
0100
0000
0000
ENDCHAR
STARTCHAR minus
ENCODING 49
SWIDTH 562 0
DWIDTH 9 0
BBX 9 14 0 -3
BITMAP
0000
0000
0000
0000
0000
0000
3e00
0000
0000
0000
0000
0000
0000
0000
ENDCHAR
STARTCHAR period
ENCODING 50
SWIDTH 562 0
DWIDTH 9 0
BBX 9 14 0 -3
BITMAP
0000
0000
0000
0000
0000
0000
0000
0000
0000
1800
1800
0000
0000
0000
ENDCHAR
STARTCHAR comma
ENCODING 51
SWIDTH 562 0
DWIDTH 9 0
BBX 9 14 0 -3
BITMAP
0000
0000
0000
0000
0000
0000
0000
0000
0000
0c00
0c00
1800
3000
0000
ENDCHAR
STARTCHAR colon
ENCODING 52
SWIDTH 562 0
DWIDTH 9 0
BBX 9 14 0 -3
BITMAP
0000
0000
0000
0000
0000
1800
1800
0000
0000
1800
1800
0000
0000
0000
ENDCHAR
STARTCHAR plus
ENCODING 53
SWIDTH 562 0
DWIDTH 9 0
BBX 9 14 0 -3
BITMAP
0000
0000
0000
0800
0800
0800
7f00
0800
0800
0800
0000
0000
0000
0000
ENDCHAR
STARTCHAR notsign
ENCODING 54
SWIDTH 562 0
DWIDTH 9 0
BBX 9 14 0 -3
BITMAP
0000
0000
7f00
0100
0100
0000
0000
0000
0000
0000
0000
0000
0000
0000
ENDCHAR
STARTCHAR macron
ENCODING 55
SWIDTH 562 0
DWIDTH 9 0
BBX 9 14 0 -3
BITMAP
0000
7f00
0000
0000
0000
0000
0000
0000
0000
0000
0000
0000
0000
0000
ENDCHAR
STARTCHAR degree
ENCODING 56
SWIDTH 562 0
DWIDTH 9 0
BBX 9 14 0 -3
BITMAP
0000
1800
2400
2400
1800
0000
0000
0000
0000
0000
0000
0000
0000
0000
ENDCHAR
STARTCHAR periodcentered
ENCODING 57
SWIDTH 562 0
DWIDTH 9 0
BBX 9 14 0 -3
BITMAP
0000
0000
0000
0000
0000
0000
0c00
0c00
0000
0000
0000
0000
0000
0000
ENDCHAR
STARTCHAR asciicircum
ENCODING 58
SWIDTH 562 0
DWIDTH 9 0
BBX 9 14 0 -3
BITMAP
0000
0800
1400
2200
0000
0000
0000
0000
0000
0000
0000
0000
0000
0000
ENDCHAR
STARTCHAR asciitilde
ENCODING 59
SWIDTH 562 0
DWIDTH 9 0
BBX 9 14 0 -3
BITMAP
0000
3000
4900
0600
0000
0000
0000
0000
0000
0000
0000
0000
0000
0000
ENDCHAR
STARTCHAR diaeresis
ENCODING 60
SWIDTH 562 0
DWIDTH 9 0
BBX 9 14 0 -3
BITMAP
0000
6300
6300
0000
0000
0000
0000
0000
0000
0000
0000
0000
0000
0000
ENDCHAR
STARTCHAR grave
ENCODING 61
SWIDTH 562 0
DWIDTH 9 0
BBX 9 14 0 -3
BITMAP
0000
1000
0800
0400
0000
0000
0000
0000
0000
0000
0000
0000
0000
0000
ENDCHAR
STARTCHAR acute
ENCODING 62
SWIDTH 562 0
DWIDTH 9 0
BBX 9 14 0 -3
BITMAP
0000
0400
0800
1000
0000
0000
0000
0000
0000
0000
0000
0000
0000
0000
ENDCHAR
STARTCHAR cedilla
ENCODING 63
SWIDTH 562 0
DWIDTH 9 0
BBX 9 14 0 -3
BITMAP
0000
0000
0000
0000
0000
0000
0000
0000
0000
0800
0800
0800
3000
0000
ENDCHAR
STARTCHAR agrave
ENCODING 64
SWIDTH 562 0
DWIDTH 9 0
BBX 9 14 0 -3
BITMAP
2000
1000
0800
0000
3c00
0200
0200
3e00
4200
4200
3f00
0000
0000
0000
ENDCHAR
STARTCHAR egrave
ENCODING 65
SWIDTH 562 0
DWIDTH 9 0
BBX 9 14 0 -3
BITMAP
2000
1000
0800
0000
3c00
4200
4200
7e00
4000
4000
3e00
0000
0000
0000
ENDCHAR
STARTCHAR igrave
ENCODING 66
SWIDTH 562 0
DWIDTH 9 0
BBX 9 14 0 -3
BITMAP
1000
0800
0400
0000
0000
0800
0800
0800
0800
0800
0800
0000
0000
0000
ENDCHAR
STARTCHAR ograve
ENCODING 67
SWIDTH 562 0
DWIDTH 9 0
BBX 9 14 0 -3
BITMAP
2000
1000
0800
0000
3c00
4200
4200
4200
4200
4200
3c00
0000
0000
0000
ENDCHAR
STARTCHAR ugrave
ENCODING 68
SWIDTH 562 0
DWIDTH 9 0
BBX 9 14 0 -3
BITMAP
2000
1000
0800
0000
4200
4200
4200
4200
4200
4200
3d00
0000
0000
0000
ENDCHAR
STARTCHAR atilde
ENCODING 69
SWIDTH 562 0
DWIDTH 9 0
BBX 9 14 0 -3
BITMAP
0000
1900
2600
0000
3c00
0200
0200
3e00
4200
4200
3f00
0000
0000
0000
ENDCHAR
STARTCHAR otilde
ENCODING 70
SWIDTH 562 0
DWIDTH 9 0
BBX 9 14 0 -3
BITMAP
0000
3200
4c00
0000
3c00
4200
4200
4200
4200
4200
3c00
0000
0000
0000
ENDCHAR
STARTCHAR ydiaeresis
ENCODING 71
SWIDTH 562 0
DWIDTH 9 0
BBX 9 14 0 -3
BITMAP
0000
2400
0000
0000
4200
4200
4200
4200
2200
1400
0800
1000
2000
4000
ENDCHAR
STARTCHAR Yacute
ENCODING 72
SWIDTH 562 0
DWIDTH 9 0
BBX 9 14 0 -3
BITMAP
0200
0400
4900
2200
1400
0800
0800
0800
0800
0800
0800
0000
0000
0000
ENDCHAR
STARTCHAR yacute
ENCODING 73
SWIDTH 562 0
DWIDTH 9 0
BBX 9 14 0 -3
BITMAP
0400
0800
1000
0000
4200
4200
4200
4200
2200
1400
0800
1000
2000
4000
ENDCHAR
STARTCHAR eacute
ENCODING 74
SWIDTH 562 0
DWIDTH 9 0
BBX 9 14 0 -3
BITMAP
0200
0400
0800
0000
3c00
4200
4200
7e00
4000
4000
3e00
0000
0000
0000
ENDCHAR
STARTCHAR onequarter
ENCODING 75
SWIDTH 562 0
DWIDTH 9 0
BBX 9 14 0 -3
BITMAP
0000
0000
2000
6000
2000
2000
7200
0600
0a00
0f00
0200
0000
0000
0000
ENDCHAR
STARTCHAR onehalf
ENCODING 76
SWIDTH 562 0
DWIDTH 9 0
BBX 9 14 0 -3
BITMAP
0000
0000
2000
6000
2000
2000
7600
0100
0200
0400
0700
0000
0000
0000
ENDCHAR
STARTCHAR threequarters
ENCODING 77
SWIDTH 562 0
DWIDTH 9 0
BBX 9 14 0 -3
BITMAP
0000
0000
3000
4800
1000
4800
3200
0600
0a00
0f00
0200
0000
0000
0000
ENDCHAR
STARTCHAR udiaeresis
ENCODING 78
SWIDTH 562 0
DWIDTH 9 0
BBX 9 14 0 -3
BITMAP
0000
2400
0000
0000
4200
4200
4200
4200
4200
4200
3d00
0000
0000
0000
ENDCHAR
STARTCHAR ccedilla
ENCODING 79
SWIDTH 562 0
DWIDTH 9 0
BBX 9 14 0 -3
BITMAP
0000
0000
0000
0000
1e00
2000
4000
4000
4000
2000
1e00
0800
3800
0000
ENDCHAR
STARTCHAR adiaeresis
ENCODING 80
SWIDTH 562 0
DWIDTH 9 0
BBX 9 14 0 -3
BITMAP
0000
2400
0000
0000
3c00
0200
0200
3e00
4200
4200
3f00
0000
0000
0000
ENDCHAR
STARTCHAR ediaeresis
ENCODING 81
SWIDTH 562 0
DWIDTH 9 0
BBX 9 14 0 -3
BITMAP
0000
2400
0000
0000
3c00
4200
4200
7e00
4000
4000
3e00
0000
0000
0000
ENDCHAR
STARTCHAR idiaeresis
ENCODING 82
SWIDTH 562 0
DWIDTH 9 0
BBX 9 14 0 -3
BITMAP
0000
2200
0000
0000
0800
0800
0800
0800
0800
0800
0800
0000
0000
0000
ENDCHAR
STARTCHAR odiaeresis
ENCODING 83
SWIDTH 562 0
DWIDTH 9 0
BBX 9 14 0 -3
BITMAP
0000
2400
0000
0000
3c00
4200
4200
4200
4200
4200
3c00
0000
0000
0000
ENDCHAR
STARTCHAR mu
ENCODING 84
SWIDTH 562 0
DWIDTH 9 0
BBX 9 14 0 -3
BITMAP
0000
0000
0000
0000
0000
4200
4200
4200
4200
4200
4200
7d00
4000
4000
ENDCHAR
STARTCHAR acircumflex
ENCODING 85
SWIDTH 562 0
DWIDTH 9 0
BBX 9 14 0 -3
BITMAP
0000
0800
1400
0000
3c00
0200
0200
3e00
4200
4200
3f00
0000
0000
0000
ENDCHAR
STARTCHAR ecircumflex
ENCODING 86
SWIDTH 562 0
DWIDTH 9 0
BBX 9 14 0 -3
BITMAP
0000
0800
1400
0000
3c00
4200
4200
7e00
4000
4000
3e00
0000
0000
0000
ENDCHAR
STARTCHAR icircumflex
ENCODING 87
SWIDTH 562 0
DWIDTH 9 0
BBX 9 14 0 -3
BITMAP
0000
0800
1400
0000
0000
0800
0800
0800
0800
0800
0800
0000
0000
0000
ENDCHAR
STARTCHAR ocircumflex
ENCODING 88
SWIDTH 562 0
DWIDTH 9 0
BBX 9 14 0 -3
BITMAP
0000
0800
1400
0000
1c00
2200
2200
2200
2200
2200
1c00
0000
0000
0000
ENDCHAR
STARTCHAR ucircumflex
ENCODING 89
SWIDTH 562 0
DWIDTH 9 0
BBX 9 14 0 -3
BITMAP
0000
1000
2800
0000
4400
4400
4400
4400
4400
4400
3a00
0000
0000
0000
ENDCHAR
STARTCHAR aacute
ENCODING 90
SWIDTH 562 0
DWIDTH 9 0
BBX 9 14 0 -3
BITMAP
0200
0400
0800
0000
3c00
0200
0200
3e00
4200
4200
3f00
0000
0000
0000
ENDCHAR
STARTCHAR multiply
ENCODING 91
SWIDTH 562 0
DWIDTH 9 0
BBX 9 14 0 -3
BITMAP
0000
0000
0000
0000
2200
1400
0800
1400
2200
0000
0000
0000
0000
0000
ENDCHAR
STARTCHAR iacute
ENCODING 92
SWIDTH 562 0
DWIDTH 9 0
BBX 9 14 0 -3
BITMAP
0400
0800
1000
0000
0000
0800
0800
0800
0800
0800
0800
0000
0000
0000
ENDCHAR
STARTCHAR oacute
ENCODING 93
SWIDTH 562 0
DWIDTH 9 0
BBX 9 14 0 -3
BITMAP
0400
0800
1000
0000
3c00
4200
4200
4200
4200
4200
3c00
0000
0000
0000
ENDCHAR
STARTCHAR uacute
ENCODING 94
SWIDTH 562 0
DWIDTH 9 0
BBX 9 14 0 -3
BITMAP
0400
0800
1000
0000
4200
4200
4200
4200
4200
4200
3d00
0000
0000
0000
ENDCHAR
STARTCHAR ntilde
ENCODING 95
SWIDTH 562 0
DWIDTH 9 0
BBX 9 14 0 -3
BITMAP
0000
1900
2600
0000
5e00
2100
2100
2100
2100
2100
2100
0000
0000
0000
ENDCHAR
STARTCHAR Agrave
ENCODING 96
SWIDTH 562 0
DWIDTH 9 0
BBX 9 14 0 -3
BITMAP
0800
0400
0200
0800
1400
2200
4100
7f00
4100
4100
4100
0000
0000
0000
ENDCHAR
STARTCHAR Egrave
ENCODING 97
SWIDTH 562 0
DWIDTH 9 0
BBX 9 14 0 -3
BITMAP
2000
1000
0800
7f00
4000
4000
7c00
4000
4000
4000
7f00
0000
0000
0000
ENDCHAR
STARTCHAR Igrave
ENCODING 98
SWIDTH 562 0
DWIDTH 9 0
BBX 9 14 0 -3
BITMAP
1000
0800
0400
0000
1c00
0800
0800
0800
0800
0800
1c00
0000
0000
0000
ENDCHAR
STARTCHAR Ograve
ENCODING 99
SWIDTH 562 0
DWIDTH 9 0
BBX 9 14 0 -3
BITMAP
2000
1000
0800
3e00
4100
4100
4100
4100
4100
4100
3e00
0000
0000
0000
ENDCHAR
STARTCHAR Ugrave
ENCODING 100
SWIDTH 562 0
DWIDTH 9 0
BBX 9 14 0 -3
BITMAP
2000
1000
0800
4100
4100
4100
4100
4100
4100
4100
3e00
0000
0000
0000
ENDCHAR
STARTCHAR Atilde
ENCODING 101
SWIDTH 562 0
DWIDTH 9 0
BBX 9 14 0 -3
BITMAP
0000
1900
2600
0000
0800
1400
2200
4100
7f00
4100
4100
0000
0000
0000
ENDCHAR
STARTCHAR Otilde
ENCODING 102
SWIDTH 562 0
DWIDTH 9 0
BBX 9 14 0 -3
BITMAP
1900
2600
3e00
4100
4100
4100
4100
4100
4100
4100
3e00
0000
0000
0000
ENDCHAR
STARTCHAR onesuperior
ENCODING 103
SWIDTH 562 0
DWIDTH 9 0
BBX 9 14 0 -3
BITMAP
0000
0000
0800
1800
0800
0800
1c00
0000
0000
0000
0000
0000
0000
0000
ENDCHAR
STARTCHAR twosuperior
ENCODING 104
SWIDTH 562 0
DWIDTH 9 0
BBX 9 14 0 -3
BITMAP
0000
0000
1800
2400
0800
1000
3c00
0000
0000
0000
0000
0000
0000
0000
ENDCHAR
STARTCHAR threesuperior
ENCODING 105
SWIDTH 562 0
DWIDTH 9 0
BBX 9 14 0 -3
BITMAP
0000
0000
1800
2400
0800
2400
1800
0000
0000
0000
0000
0000
0000
0000
ENDCHAR
STARTCHAR ordfeminine
ENCODING 106
SWIDTH 562 0
DWIDTH 9 0
BBX 9 14 0 -3
BITMAP
1c00
0200
1e00
2200
1e00
0000
3e00
0000
0000
0000
0000
0000
0000
0000
ENDCHAR
STARTCHAR masculine
ENCODING 107
SWIDTH 562 0
DWIDTH 9 0
BBX 9 14 0 -3
BITMAP
1c00
2200
2200
2200
1c00
0000
3e00
0000
0000
0000
0000
0000
0000
0000
ENDCHAR
STARTCHAR guillemotleft
ENCODING 108
SWIDTH 562 0
DWIDTH 9 0
BBX 9 14 0 -3
BITMAP
0000
0000
0000
1100
2200
4400
2200
1100
0000
0000
0000
0000
0000
0000
ENDCHAR
STARTCHAR guillemotright
ENCODING 109
SWIDTH 562 0
DWIDTH 9 0
BBX 9 14 0 -3
BITMAP
0000
0000
0000
4400
2200
1100
2200
4400
0000
0000
0000
0000
0000
0000
ENDCHAR
STARTCHAR exclamdown
ENCODING 110
SWIDTH 562 0
DWIDTH 9 0
BBX 9 14 0 -3
BITMAP
0000
0800
0000
0000
0800
0800
0800
0800
0800
0800
0800
0000
0000
0000
ENDCHAR
STARTCHAR questiondown
ENCODING 111
SWIDTH 562 0
DWIDTH 9 0
BBX 9 14 0 -3
BITMAP
0000
0400
0000
0000
0400
0400
0800
1000
2100
2100
1e00
0000
0000
0000
ENDCHAR
STARTCHAR Adiaeresis
ENCODING 112
SWIDTH 562 0
DWIDTH 9 0
BBX 9 14 0 -3
BITMAP
2200
0000
0800
1400
2200
4100
4100
7f00
4100
4100
4100
0000
0000
0000
ENDCHAR
STARTCHAR Ediaeresis
ENCODING 113
SWIDTH 562 0
DWIDTH 9 0
BBX 9 14 0 -3
BITMAP
2200
0000
7f00
4000
4000
4000
7c00
4000
4000
4000
7f00
0000
0000
0000
ENDCHAR
STARTCHAR Idiaeresis
ENCODING 114
SWIDTH 562 0
DWIDTH 9 0
BBX 9 14 0 -3
BITMAP
2200
0000
1c00
0800
0800
0800
0800
0800
0800
0800
1c00
0000
0000
0000
ENDCHAR
STARTCHAR Odiaeresis
ENCODING 115
SWIDTH 562 0
DWIDTH 9 0
BBX 9 14 0 -3
BITMAP
2200
0000
3e00
4100
4100
4100
4100
4100
4100
4100
3e00
0000
0000
0000
ENDCHAR
STARTCHAR Udiaeresis
ENCODING 116
SWIDTH 562 0
DWIDTH 9 0
BBX 9 14 0 -3
BITMAP
2200
0000
4100
4100
4100
4100
4100
4100
4100
4100
3e00
0000
0000
0000
ENDCHAR
STARTCHAR Acircumflex
ENCODING 117
SWIDTH 562 0
DWIDTH 9 0
BBX 9 14 0 -3
BITMAP
0800
1400
0000
0800
1400
2200
4100
7f00
4100
4100
4100
0000
0000
0000
ENDCHAR
STARTCHAR Ecircumflex
ENCODING 118
SWIDTH 562 0
DWIDTH 9 0
BBX 9 14 0 -3
BITMAP
0800
1400
0000
7f00
4000
4000
4000
7c00
4000
4000
7f00
0000
0000
0000
ENDCHAR
STARTCHAR Icircumflex
ENCODING 119
SWIDTH 562 0
DWIDTH 9 0
BBX 9 14 0 -3
BITMAP
0800
1400
0000
1c00
0800
0800
0800
0800
0800
0800
1c00
0000
0000
0000
ENDCHAR
STARTCHAR Ocircumflex
ENCODING 120
SWIDTH 562 0
DWIDTH 9 0
BBX 9 14 0 -3
BITMAP
0800
1400
0000
3e00
4100
4100
4100
4100
4100
4100
3e00
0000
0000
0000
ENDCHAR
STARTCHAR Ucircumflex
ENCODING 121
SWIDTH 562 0
DWIDTH 9 0
BBX 9 14 0 -3
BITMAP
0800
1400
0000
4100
4100
4100
4100
4100
4100
4100
3e00
0000
0000
0000
ENDCHAR
STARTCHAR Aacute
ENCODING 122
SWIDTH 562 0
DWIDTH 9 0
BBX 9 14 0 -3
BITMAP
0800
1000
2000
0800
1400
2200
4100
7f00
4100
4100
4100
0000
0000
0000
ENDCHAR
STARTCHAR Eacute
ENCODING 123
SWIDTH 562 0
DWIDTH 9 0
BBX 9 14 0 -3
BITMAP
0200
0400
0800
7f00
4000
4000
4000
7c00
4000
4000
7f00
0000
0000
0000
ENDCHAR
STARTCHAR Iacute
ENCODING 124
SWIDTH 562 0
DWIDTH 9 0
BBX 9 14 0 -3
BITMAP
0400
0800
1000
0000
1c00
0800
0800
0800
0800
0800
1c00
0000
0000
0000
ENDCHAR
STARTCHAR Oacute
ENCODING 125
SWIDTH 562 0
DWIDTH 9 0
BBX 9 14 0 -3
BITMAP
0200
0400
0800
3e00
4100
4100
4100
4100
4100
4100
3e00
0000
0000
0000
ENDCHAR
STARTCHAR Uacute
ENCODING 126
SWIDTH 562 0
DWIDTH 9 0
BBX 9 14 0 -3
BITMAP
0200
0400
0800
4100
4100
4100
4100
4100
4100
4100
3e00
0000
0000
0000
ENDCHAR
STARTCHAR Ntilde
ENCODING 127
SWIDTH 562 0
DWIDTH 9 0
BBX 9 14 0 -3
BITMAP
0000
1900
2600
0000
4100
6100
5100
4900
4500
4300
4100
0000
0000
0000
ENDCHAR
STARTCHAR a
ENCODING 128
SWIDTH 562 0
DWIDTH 9 0
BBX 9 14 0 -3
BITMAP
0000
0000
0000
0000
3c00
0200
0200
3e00
4200
4200
3f00
0000
0000
0000
ENDCHAR
STARTCHAR b
ENCODING 129
SWIDTH 562 0
DWIDTH 9 0
BBX 9 14 0 -3
BITMAP
0000
4000
4000
4000
7800
4400
4200
4200
4200
4400
7800
0000
0000
0000
ENDCHAR
STARTCHAR c
ENCODING 130
SWIDTH 562 0
DWIDTH 9 0
BBX 9 14 0 -3
BITMAP
0000
0000
0000
0000
1e00
2000
4000
4000
4000
2000
1e00
0000
0000
0000
ENDCHAR
STARTCHAR d
ENCODING 131
SWIDTH 562 0
DWIDTH 9 0
BBX 9 14 0 -3
BITMAP
0000
0200
0200
0200
1e00
2200
4200
4200
4200
2200
1e00
0000
0000
0000
ENDCHAR
STARTCHAR e
ENCODING 132
SWIDTH 562 0
DWIDTH 9 0
BBX 9 14 0 -3
BITMAP
0000
0000
0000
0000
3c00
4200
4200
7e00
4000
4000
3e00
0000
0000
0000
ENDCHAR
STARTCHAR f
ENCODING 133
SWIDTH 562 0
DWIDTH 9 0
BBX 9 14 0 -3
BITMAP
0000
0e00
1000
1000
7c00
1000
1000
1000
1000
1000
1000
0000
0000
0000
ENDCHAR
STARTCHAR g
ENCODING 134
SWIDTH 562 0
DWIDTH 9 0
BBX 9 14 0 -3
BITMAP
0000
0000
0000
0000
1e00
2100
4100
4100
2300
1d00
0100
2100
1e00
0000
ENDCHAR
STARTCHAR h
ENCODING 135
SWIDTH 562 0
DWIDTH 9 0
BBX 9 14 0 -3
BITMAP
0000
4000
4000
4000
5c00
6200
4200
4200
4200
4200
4200
0000
0000
0000
ENDCHAR
STARTCHAR i
ENCODING 136
SWIDTH 562 0
DWIDTH 9 0
BBX 9 14 0 -3
BITMAP
0000
0800
0000
0000
0800
0800
0800
0800
0800
0800
0800
0000
0000
0000
ENDCHAR
STARTCHAR j
ENCODING 137
SWIDTH 562 0
DWIDTH 9 0
BBX 9 14 0 -3
BITMAP
0000
0200
0000
0000
0200
0200
0200
0200
0200
0200
0200
2200
1c00
0000
ENDCHAR
STARTCHAR k
ENCODING 138
SWIDTH 562 0
DWIDTH 9 0
BBX 9 14 0 -3
BITMAP
0000
2000
2000
2000
2200
2400
2800
3000
2800
2400
2200
0000
0000
0000
ENDCHAR
STARTCHAR l
ENCODING 139
SWIDTH 562 0
DWIDTH 9 0
BBX 9 14 0 -3
BITMAP
0000
0800
0800
0800
0800
0800
0800
0800
0800
0800
0c00
0000
0000
0000
ENDCHAR
STARTCHAR m
ENCODING 140
SWIDTH 562 0
DWIDTH 9 0
BBX 9 14 0 -3
BITMAP
0000
0000
0000
0000
3600
4900
4900
4900
4900
4900
4900
0000
0000
0000
ENDCHAR
STARTCHAR n
ENCODING 141
SWIDTH 562 0
DWIDTH 9 0
BBX 9 14 0 -3
BITMAP
0000
0000
0000
0000
5e00
2100
2100
2100
2100
2100
2100
0000
0000
0000
ENDCHAR
STARTCHAR o
ENCODING 142
SWIDTH 562 0
DWIDTH 9 0
BBX 9 14 0 -3
BITMAP
0000
0000
0000
0000
3c00
4200
4200
4200
4200
4200
3c00
0000
0000
0000
ENDCHAR
STARTCHAR p
ENCODING 143
SWIDTH 562 0
DWIDTH 9 0
BBX 9 14 0 -3
BITMAP
0000
0000
0000
0000
7800
4400
4200
4200
4200
4400
7800
4000
4000
4000
ENDCHAR
STARTCHAR q
ENCODING 144
SWIDTH 562 0
DWIDTH 9 0
BBX 9 14 0 -3
BITMAP
0000
0000
0000
0000
1e00
2200
4200
4200
2200
1e00
0200
0200
0300
0000
ENDCHAR
STARTCHAR r
ENCODING 145
SWIDTH 562 0
DWIDTH 9 0
BBX 9 14 0 -3
BITMAP
0000
0000
0000
0000
4e00
3100
2000
2000
2000
2000
2000
0000
0000
0000
ENDCHAR
STARTCHAR s
ENCODING 146
SWIDTH 562 0
DWIDTH 9 0
BBX 9 14 0 -3
BITMAP
0000
0000
0000
0000
3c00
4200
2000
1800
0400
4200
3c00
0000
0000
0000
ENDCHAR
STARTCHAR t
ENCODING 147
SWIDTH 562 0
DWIDTH 9 0
BBX 9 14 0 -3
BITMAP
0000
0800
0800
0800
3e00
0800
0800
0800
0800
0800
0800
0000
0000
0000
ENDCHAR
STARTCHAR u
ENCODING 148
SWIDTH 562 0
DWIDTH 9 0
BBX 9 14 0 -3
BITMAP
0000
0000
0000
0000
4200
4200
4200
4200
4200
4200
3d00
0000
0000
0000
ENDCHAR
STARTCHAR v
ENCODING 149
SWIDTH 562 0
DWIDTH 9 0
BBX 9 14 0 -3
BITMAP
0000
0000
0000
0000
4100
4100
2200
2200
1400
1400
0800
0000
0000
0000
ENDCHAR
STARTCHAR w
ENCODING 150
SWIDTH 562 0
DWIDTH 9 0
BBX 9 14 0 -3
BITMAP
0000
0000
0000
0000
4100
4100
4100
4900
4900
5500
2200
0000
0000
0000
ENDCHAR
STARTCHAR x
ENCODING 151
SWIDTH 562 0
DWIDTH 9 0
BBX 9 14 0 -3
BITMAP
0000
0000
0000
0000
4100
2200
1400
0800
1400
2200
4100
0000
0000
0000
ENDCHAR
STARTCHAR y
ENCODING 152
SWIDTH 562 0
DWIDTH 9 0
BBX 9 14 0 -3
BITMAP
0000
0000
0000
0000
4200
4200
4200
4200
2200
1400
0800
1000
2000
4000
ENDCHAR
STARTCHAR z
ENCODING 153
SWIDTH 562 0
DWIDTH 9 0
BBX 9 14 0 -3
BITMAP
0000
0000
0000
0000
7f00
0200
0400
0800
1000
2000
7f00
0000
0000
0000
ENDCHAR
STARTCHAR ae
ENCODING 154
SWIDTH 562 0
DWIDTH 9 0
BBX 9 14 0 -3
BITMAP
0000
0000
0000
0000
7600
0900
1900
2f00
4800
4800
3700
0000
0000
0000
ENDCHAR
STARTCHAR oslash
ENCODING 155
SWIDTH 562 0
DWIDTH 9 0
BBX 9 14 0 -3
BITMAP
0000
0000
0000
0000
1d00
2200
2600
2a00
3200
2200
5c00
0000
0000
0000
ENDCHAR
STARTCHAR aring
ENCODING 156
SWIDTH 562 0
DWIDTH 9 0
BBX 9 14 0 -3
BITMAP
0000
1c00
1c00
0000
3c00
0200
0200
3e00
4200
4200
3f00
0000
0000
0000
ENDCHAR
STARTCHAR division
ENCODING 157
SWIDTH 562 0
DWIDTH 9 0
BBX 9 14 0 -3
BITMAP
0000
0000
0000
1800
1800
0000
7e00
0000
1800
1800
0000
0000
0000
0000
ENDCHAR
STARTCHAR fm
ENCODING 158
SWIDTH 562 0
DWIDTH 9 0
BBX 9 14 0 -3
BITMAP
0000
7f00
7f00
0000
0c00
0c00
0000
0000
0c00
0c00
1800
3000
0000
0000
ENDCHAR
STARTCHAR dup
ENCODING 159
SWIDTH 562 0
DWIDTH 9 0
BBX 9 14 0 -3
BITMAP
0000
7f00
7f00
0000
0800
4900
2a00
1400
2a00
4900
0800
0000
0000
0000
ENDCHAR
STARTCHAR A
ENCODING 160
SWIDTH 562 0
DWIDTH 9 0
BBX 9 14 0 -3
BITMAP
0000
0000
0800
1400
2200
4100
4100
7f00
4100
4100
4100
0000
0000
0000
ENDCHAR
STARTCHAR B
ENCODING 161
SWIDTH 562 0
DWIDTH 9 0
BBX 9 14 0 -3
BITMAP
0000
0000
7c00
2200
2100
2200
3c00
2200
2100
2200
7c00
0000
0000
0000
ENDCHAR
STARTCHAR C
ENCODING 162
SWIDTH 562 0
DWIDTH 9 0
BBX 9 14 0 -3
BITMAP
0000
0000
0e00
1100
2000
4000
4000
4000
2000
1100
0e00
0000
0000
0000
ENDCHAR
STARTCHAR D
ENCODING 163
SWIDTH 562 0
DWIDTH 9 0
BBX 9 14 0 -3
BITMAP
0000
0000
7c00
2200
2100
2100
2100
2100
2100
2200
7c00
0000
0000
0000
ENDCHAR
STARTCHAR E
ENCODING 164
SWIDTH 562 0
DWIDTH 9 0
BBX 9 14 0 -3
BITMAP
0000
0000
7f00
4000
4000
4000
7c00
4000
4000
4000
7f00
0000
0000
0000
ENDCHAR
STARTCHAR F
ENCODING 165
SWIDTH 562 0
DWIDTH 9 0
BBX 9 14 0 -3
BITMAP
0000
0000
7f00
4000
4000
4000
7e00
4000
4000
4000
4000
0000
0000
0000
ENDCHAR
STARTCHAR G
ENCODING 166
SWIDTH 562 0
DWIDTH 9 0
BBX 9 14 0 -3
BITMAP
0000
0000
1c00
2200
4000
4000
4000
4f00
4200
2200
1e00
0000
0000
0000
ENDCHAR
STARTCHAR H
ENCODING 167
SWIDTH 562 0
DWIDTH 9 0
BBX 9 14 0 -3
BITMAP
0000
0000
4100
4100
4100
4100
7f00
4100
4100
4100
4100
0000
0000
0000
ENDCHAR
STARTCHAR I
ENCODING 168
SWIDTH 562 0
DWIDTH 9 0
BBX 9 14 0 -3
BITMAP
0000
0000
1c00
0800
0800
0800
0800
0800
0800
0800
1c00
0000
0000
0000
ENDCHAR
STARTCHAR J
ENCODING 169
SWIDTH 562 0
DWIDTH 9 0
BBX 9 14 0 -3
BITMAP
0000
0000
0e00
0400
0400
0400
0400
0400
4400
4400
3800
0000
0000
0000
ENDCHAR
STARTCHAR K
ENCODING 170
SWIDTH 562 0
DWIDTH 9 0
BBX 9 14 0 -3
BITMAP
0000
0000
4100
4200
4400
4800
5000
6800
4400
4200
4100
0000
0000
0000
ENDCHAR
STARTCHAR L
ENCODING 171
SWIDTH 562 0
DWIDTH 9 0
BBX 9 14 0 -3
BITMAP
0000
0000
4000
4000
4000
4000
4000
4000
4000
4000
7f00
0000
0000
0000
ENDCHAR
STARTCHAR M
ENCODING 172
SWIDTH 562 0
DWIDTH 9 0
BBX 9 14 0 -3
BITMAP
0000
0000
4100
6300
5500
4900
4900
4100
4100
4100
4100
0000
0000
0000
ENDCHAR
STARTCHAR N
ENCODING 173
SWIDTH 562 0
DWIDTH 9 0
BBX 9 14 0 -3
BITMAP
0000
0000
4100
6100
5100
4900
4500
4300
4100
4100
4100
0000
0000
0000
ENDCHAR
STARTCHAR O
ENCODING 174
SWIDTH 562 0
DWIDTH 9 0
BBX 9 14 0 -3
BITMAP
0000
0000
3e00
4100
4100
4100
4100
4100
4100
4100
3e00
0000
0000
0000
ENDCHAR
STARTCHAR P
ENCODING 175
SWIDTH 562 0
DWIDTH 9 0
BBX 9 14 0 -3
BITMAP
0000
0000
7c00
4200
4100
4100
4200
7c00
4000
4000
4000
0000
0000
0000
ENDCHAR
STARTCHAR Q
ENCODING 176
SWIDTH 562 0
DWIDTH 9 0
BBX 9 14 0 -3
BITMAP
0000
0000
1c00
2200
4100
4100
4100
4100
4900
2a00
1c00
0200
0100
0000
ENDCHAR
STARTCHAR R
ENCODING 177
SWIDTH 562 0
DWIDTH 9 0
BBX 9 14 0 -3
BITMAP
0000
0000
7e00
4100
4100
4100
7e00
4800
4400
4200
4100
0000
0000
0000
ENDCHAR
STARTCHAR S
ENCODING 178
SWIDTH 562 0
DWIDTH 9 0
BBX 9 14 0 -3
BITMAP
0000
0000
3e00
4100
4000
3000
0800
0600
0100
4100
3e00
0000
0000
0000
ENDCHAR
STARTCHAR T
ENCODING 179
SWIDTH 562 0
DWIDTH 9 0
BBX 9 14 0 -3
BITMAP
0000
0000
7f00
0800
0800
0800
0800
0800
0800
0800
0800
0000
0000
0000
ENDCHAR
STARTCHAR U
ENCODING 180
SWIDTH 562 0
DWIDTH 9 0
BBX 9 14 0 -3
BITMAP
0000
0000
4100
4100
4100
4100
4100
4100
4100
4100
3e00
0000
0000
0000
ENDCHAR
STARTCHAR V
ENCODING 181
SWIDTH 562 0
DWIDTH 9 0
BBX 9 14 0 -3
BITMAP
0000
0000
4100
4100
2200
2200
2200
1400
1400
0800
0800
0000
0000
0000
ENDCHAR
STARTCHAR W
ENCODING 182
SWIDTH 562 0
DWIDTH 9 0
BBX 9 14 0 -3
BITMAP
0000
0000
4100
4100
4100
4100
4900
4900
4900
5500
2200
0000
0000
0000
ENDCHAR
STARTCHAR X
ENCODING 183
SWIDTH 562 0
DWIDTH 9 0
BBX 9 14 0 -3
BITMAP
0000
0000
4100
4100
2200
1400
0800
1400
2200
4100
4100
0000
0000
0000
ENDCHAR
STARTCHAR Y
ENCODING 184
SWIDTH 562 0
DWIDTH 9 0
BBX 9 14 0 -3
BITMAP
0000
0000
4100
2200
1400
0800
0800
0800
0800
0800
0800
0000
0000
0000
ENDCHAR
STARTCHAR Z
ENCODING 185
SWIDTH 562 0
DWIDTH 9 0
BBX 9 14 0 -3
BITMAP
0000
0000
7f00
0100
0200
0400
0800
1000
2000
4000
7f00
0000
0000
0000
ENDCHAR
STARTCHAR AE
ENCODING 186
SWIDTH 562 0
DWIDTH 9 0
BBX 9 14 0 -3
BITMAP
0000
0000
0f00
1400
2400
4400
4700
7c00
4400
4400
4700
0000
0000
0000
ENDCHAR
STARTCHAR Ooblique
ENCODING 187
SWIDTH 562 0
DWIDTH 9 0
BBX 9 14 0 -3
BITMAP
0000
0000
3e00
4100
4300
4500
4900
5100
6100
4100
3e00
0000
0000
0000
ENDCHAR
STARTCHAR Aring
ENCODING 188
SWIDTH 562 0
DWIDTH 9 0
BBX 9 14 0 -3
BITMAP
1c00
1c00
0800
1400
2200
4100
4100
7f00
4100
4100
4100
0000
0000
0000
ENDCHAR
STARTCHAR Ccedilla
ENCODING 189
SWIDTH 562 0
DWIDTH 9 0
BBX 9 14 0 -3
BITMAP
0000
0000
0e00
1100
2000
4000
4000
4000
2000
1100
0e00
0400
3c00
0000
ENDCHAR
STARTCHAR semicolon
ENCODING 190
SWIDTH 562 0
DWIDTH 9 0
BBX 9 14 0 -3
BITMAP
0000
0000
0000
0000
0000
0c00
0c00
0000
0000
0c00
0c00
1800
3000
0000
ENDCHAR
STARTCHAR asterisk
ENCODING 191
SWIDTH 562 0
DWIDTH 9 0
BBX 9 14 0 -3
BITMAP
0000
0000
0800
4900
2a00
1400
2a00
4900
0800
0000
0000
0000
0000
0000
ENDCHAR
STARTCHAR c0
ENCODING 192
SWIDTH 562 0
DWIDTH 9 0
BBX 9 14 0 -3
BITMAP
0000
0000
0000
0000
0000
0000
0000
0000
0000
0000
0000
0000
0000
0000
ENDCHAR
STARTCHAR c1
ENCODING 193
SWIDTH 562 0
DWIDTH 9 0
BBX 9 14 0 -3
BITMAP
0000
0000
0000
0000
0000
0000
0000
0000
0000
0000
0000
0000
0000
0000
ENDCHAR
STARTCHAR c2
ENCODING 194
SWIDTH 562 0
DWIDTH 9 0
BBX 9 14 0 -3
BITMAP
0000
0000
0000
0000
0000
0000
0000
0000
0000
0000
0000
0000
0000
0000
ENDCHAR
STARTCHAR c3
ENCODING 195
SWIDTH 562 0
DWIDTH 9 0
BBX 9 14 0 -3
BITMAP
0000
0000
0000
0000
0000
0000
0000
0000
0000
0000
0000
0000
0000
0000
ENDCHAR
STARTCHAR c4
ENCODING 196
SWIDTH 562 0
DWIDTH 9 0
BBX 9 14 0 -3
BITMAP
0000
0000
0000
0000
0000
0000
0000
0000
0000
0000
0000
0000
0000
0000
ENDCHAR
STARTCHAR c5
ENCODING 197
SWIDTH 562 0
DWIDTH 9 0
BBX 9 14 0 -3
BITMAP
0000
0000
0000
0000
0000
0000
0000
0000
0000
0000
0000
0000
0000
0000
ENDCHAR
STARTCHAR c6
ENCODING 198
SWIDTH 562 0
DWIDTH 9 0
BBX 9 14 0 -3
BITMAP
0000
0000
0000
0000
0000
0000
0000
0000
0000
0000
0000
0000
0000
0000
ENDCHAR
STARTCHAR c7
ENCODING 199
SWIDTH 562 0
DWIDTH 9 0
BBX 9 14 0 -3
BITMAP
0000
0000
0000
0000
0000
0000
0000
0000
0000
0000
0000
0000
0000
0000
ENDCHAR
STARTCHAR c8
ENCODING 200
SWIDTH 562 0
DWIDTH 9 0
BBX 9 14 0 -3
BITMAP
0000
0000
0000
0000
0000
0000
0000
0000
0000
0000
0000
0000
0000
0000
ENDCHAR
STARTCHAR c9
ENCODING 201
SWIDTH 562 0
DWIDTH 9 0
BBX 9 14 0 -3
BITMAP
0000
0000
0000
0000
0000
0000
0000
0000
0000
0000
0000
0000
0000
0000
ENDCHAR
STARTCHAR ca
ENCODING 202
SWIDTH 562 0
DWIDTH 9 0
BBX 9 14 0 -3
BITMAP
0000
0000
0000
0000
0000
0000
0000
0000
0000
0000
0000
0000
0000
0000
ENDCHAR
STARTCHAR cb
ENCODING 203
SWIDTH 562 0
DWIDTH 9 0
BBX 9 14 0 -3
BITMAP
0000
0000
0000
0000
0000
0000
0000
0000
0000
0000
0000
0000
0000
0000
ENDCHAR
STARTCHAR cc
ENCODING 204
SWIDTH 562 0
DWIDTH 9 0
BBX 9 14 0 -3
BITMAP
0000
0000
0000
0000
0000
0000
0000
0000
0000
0000
0000
0000
0000
0000
ENDCHAR
STARTCHAR cd
ENCODING 205
SWIDTH 562 0
DWIDTH 9 0
BBX 9 14 0 -3
BITMAP
0000
0000
0000
0000
0000
0000
0000
0000
0000
0000
0000
0000
0000
0000
ENDCHAR
STARTCHAR ce
ENCODING 206
SWIDTH 562 0
DWIDTH 9 0
BBX 9 14 0 -3
BITMAP
0000
0000
0000
0000
0000
0000
0000
0000
0000
0000
0000
0000
0000
0000
ENDCHAR
STARTCHAR cf
ENCODING 207
SWIDTH 562 0
DWIDTH 9 0
BBX 9 14 0 -3
BITMAP
0000
0000
0000
0000
0000
0000
0000
0000
0000
0000
0000
0000
0000
0000
ENDCHAR
STARTCHAR copyright
ENCODING 208
SWIDTH 562 0
DWIDTH 9 0
BBX 9 14 0 -3
BITMAP
0000
1c00
2200
4d00
5100
5100
4d00
2200
1c00
0000
0000
0000
0000
0000
ENDCHAR
STARTCHAR registered
ENCODING 209
SWIDTH 562 0
DWIDTH 9 0
BBX 9 14 0 -3
BITMAP
0000
1c00
2200
5900
5500
5900
5500
2200
1c00
0000
0000
0000
0000
0000
ENDCHAR
STARTCHAR boxA
ENCODING 210
SWIDTH 562 0
DWIDTH 9 0
BBX 9 14 0 -3
BITMAP
2000
5000
8800
8800
f800
8800
8800
0000
ff80
8080
8080
ff80
0000
0000
ENDCHAR
STARTCHAR insert
ENCODING 211
SWIDTH 562 0
DWIDTH 9 0
BBX 9 14 0 -3
BITMAP
0000
0000
0000
0000
0800
1c00
3e00
7700
e380
c180
8080
0000
0000
0000
ENDCHAR
STARTCHAR boxB
ENCODING 212
SWIDTH 562 0
DWIDTH 9 0
BBX 9 14 0 -3
BITMAP
0f00
0480
0480
0700
0480
0480
0f00
0000
ff80
8080
8080
ff80
0000
0000
ENDCHAR
STARTCHAR box6
ENCODING 213
SWIDTH 562 0
DWIDTH 9 0
BBX 9 14 0 -3
BITMAP
0000
0000
ff80
8080
9080
a080
a080
ac80
b280
a280
9c80
8080
ff80
0000
ENDCHAR
STARTCHAR plusminus
ENCODING 214
SWIDTH 562 0
DWIDTH 9 0
BBX 9 14 0 -3
BITMAP
0000
0000
0800
0800
0800
7f00
0800
0800
0800
0000
7f00
0000
0000
0000
ENDCHAR
STARTCHAR ETH
ENCODING 215
SWIDTH 562 0
DWIDTH 9 0
BBX 9 14 0 -3
BITMAP
0000
0000
7c00
2200
2100
2100
7900
2100
2100
2200
7c00
0000
0000
0000
ENDCHAR
STARTCHAR rightarrow
ENCODING 216
SWIDTH 562 0
DWIDTH 9 0
BBX 9 14 0 -3
BITMAP
0000
0000
0000
0000
0400
0600
ff00
0600
0400
0000
0000
0000
0000
0000
ENDCHAR
STARTCHAR THORN
ENCODING 217
SWIDTH 562 0
DWIDTH 9 0
BBX 9 14 0 -3
BITMAP
0000
0000
4000
4000
7c00
4200
4200
4200
7c00
4000
4000
0000
0000
0000
ENDCHAR
STARTCHAR upshift
ENCODING 218
SWIDTH 562 0
DWIDTH 9 0
BBX 9 14 0 -3
BITMAP
0000
0800
1400
2200
4100
7700
1400
1400
1400
1400
1400
1c00
0000
0000
ENDCHAR
STARTCHAR human
ENCODING 219
SWIDTH 562 0
DWIDTH 9 0
BBX 9 14 0 -3
BITMAP
0000
1c00
1400
1c00
0800
7f00
0800
0800
1400
2200
4100
0000
0000
0000
ENDCHAR
STARTCHAR underB
ENCODING 220
SWIDTH 562 0
DWIDTH 9 0
BBX 9 14 0 -3
BITMAP
3c00
1200
1200
1c00
1200
1200
3c00
0000
ff80
0000
0000
0000
0000
0000
ENDCHAR
STARTCHAR downshift
ENCODING 221
SWIDTH 562 0
DWIDTH 9 0
BBX 9 14 0 -3
BITMAP
0000
1c00
1400
1400
1400
1400
1400
7700
4100
2200
1400
0800
0000
0000
ENDCHAR
STARTCHAR boxquestion
ENCODING 222
SWIDTH 562 0
DWIDTH 9 0
BBX 9 14 0 -3
BITMAP
ff80
8080
9c80
a280
a280
8280
8480
8880
8880
8080
8880
8080
ff80
0000
ENDCHAR
STARTCHAR boxsolid
ENCODING 223
SWIDTH 562 0
DWIDTH 9 0
BBX 9 14 0 -3
BITMAP
ff80
ff80
ff80
ff80
ff80
ff80
ff80
ff80
ff80
ff80
ff80
ff80
ff80
0000
ENDCHAR
STARTCHAR e0
ENCODING 224
SWIDTH 562 0
DWIDTH 9 0
BBX 9 14 0 -3
BITMAP
0000
0000
0000
0000
0000
0000
0000
0000
0000
0000
0000
0000
0000
0000
ENDCHAR
STARTCHAR e1
ENCODING 225
SWIDTH 562 0
DWIDTH 9 0
BBX 9 14 0 -3
BITMAP
0000
0000
0000
0000
0000
0000
0000
0000
0000
0000
0000
0000
0000
0000
ENDCHAR
STARTCHAR e2
ENCODING 226
SWIDTH 562 0
DWIDTH 9 0
BBX 9 14 0 -3
BITMAP
0000
0000
0000
0000
0000
0000
0000
0000
0000
0000
0000
0000
0000
0000
ENDCHAR
STARTCHAR e3
ENCODING 227
SWIDTH 562 0
DWIDTH 9 0
BBX 9 14 0 -3
BITMAP
0000
0000
0000
0000
0000
0000
0000
0000
0000
0000
0000
0000
0000
0000
ENDCHAR
STARTCHAR e4
ENCODING 228
SWIDTH 562 0
DWIDTH 9 0
BBX 9 14 0 -3
BITMAP
0000
0000
0000
0000
0000
0000
0000
0000
0000
0000
0000
0000
0000
0000
ENDCHAR
STARTCHAR e5
ENCODING 229
SWIDTH 562 0
DWIDTH 9 0
BBX 9 14 0 -3
BITMAP
0000
0000
0000
0000
0000
0000
0000
0000
0000
0000
0000
0000
0000
0000
ENDCHAR
STARTCHAR e6
ENCODING 230
SWIDTH 562 0
DWIDTH 9 0
BBX 9 14 0 -3
BITMAP
0000
0000
0000
0000
0000
0000
0000
0000
0000
0000
0000
0000
0000
0000
ENDCHAR
STARTCHAR e7
ENCODING 231
SWIDTH 562 0
DWIDTH 9 0
BBX 9 14 0 -3
BITMAP
0000
0000
0000
0000
0000
0000
0000
0000
0000
0000
0000
0000
0000
0000
ENDCHAR
STARTCHAR e8
ENCODING 232
SWIDTH 562 0
DWIDTH 9 0
BBX 9 14 0 -3
BITMAP
0000
0000
0000
0000
0000
0000
0000
0000
0000
0000
0000
0000
0000
0000
ENDCHAR
STARTCHAR e9
ENCODING 233
SWIDTH 562 0
DWIDTH 9 0
BBX 9 14 0 -3
BITMAP
0000
0000
0000
0000
0000
0000
0000
0000
0000
0000
0000
0000
0000
0000
ENDCHAR
STARTCHAR ea
ENCODING 234
SWIDTH 562 0
DWIDTH 9 0
BBX 9 14 0 -3
BITMAP
0000
0000
0000
0000
0000
0000
0000
0000
0000
0000
0000
0000
0000
0000
ENDCHAR
STARTCHAR eb
ENCODING 235
SWIDTH 562 0
DWIDTH 9 0
BBX 9 14 0 -3
BITMAP
0000
0000
0000
0000
0000
0000
0000
0000
0000
0000
0000
0000
0000
0000
ENDCHAR
STARTCHAR ec
ENCODING 236
SWIDTH 562 0
DWIDTH 9 0
BBX 9 14 0 -3
BITMAP
0000
0000
0000
0000
0000
0000
0000
0000
0000
0000
0000
0000
0000
0000
ENDCHAR
STARTCHAR ed
ENCODING 237
SWIDTH 562 0
DWIDTH 9 0
BBX 9 14 0 -3
BITMAP
0000
0000
0000
0000
0000
0000
0000
0000
0000
0000
0000
0000
0000
0000
ENDCHAR
STARTCHAR ee
ENCODING 238
SWIDTH 562 0
DWIDTH 9 0
BBX 9 14 0 -3
BITMAP
0000
0000
0000
0000
0000
0000
0000
0000
0000
0000
0000
0000
0000
0000
ENDCHAR
STARTCHAR ef
ENCODING 239
SWIDTH 562 0
DWIDTH 9 0
BBX 9 14 0 -3
BITMAP
0000
0000
0000
0000
0000
0000
0000
0000
0000
0000
0000
0000
0000
0000
ENDCHAR
STARTCHAR badcommhi
ENCODING 240
SWIDTH 562 0
DWIDTH 9 0
BBX 9 14 0 -3
BITMAP
0000
8000
c000
e000
7000
3800
ff80
0e00
0700
0380
0180
0080
0000
0000
ENDCHAR
STARTCHAR commhi
ENCODING 241
SWIDTH 562 0
DWIDTH 9 0
BBX 9 14 0 -3
BITMAP
0000
0000
0000
0000
0000
0000
ff80
0000
0000
0000
0000
0000
0000
0000
ENDCHAR
STARTCHAR commjag
ENCODING 242
SWIDTH 562 0
DWIDTH 9 0
BBX 9 14 0 -3
BITMAP
0000
0000
0000
0000
0000
0000
fc00
0800
1000
2000
7f80
0000
0000
0000
ENDCHAR
STARTCHAR commlo
ENCODING 243
SWIDTH 562 0
DWIDTH 9 0
BBX 9 14 0 -3
BITMAP
0000
0000
0000
0000
0000
0000
0000
0000
0000
0000
ff80
0000
0000
0000
ENDCHAR
STARTCHAR clockleft
ENCODING 244
SWIDTH 562 0
DWIDTH 9 0
BBX 9 14 0 -3
BITMAP
0000
0100
0800
0000
2000
0000
0080
4100
0100
0100
2100
0100
0800
0100
ENDCHAR
STARTCHAR clockright
ENCODING 245
SWIDTH 562 0
DWIDTH 9 0
BBX 9 14 0 -3
BITMAP
0000
2000
0000
2800
4000
8000
0400
0000
0000
0800
0000
2000
0000
0000
ENDCHAR
STARTCHAR lock
ENCODING 246
SWIDTH 562 0
DWIDTH 9 0
BBX 9 14 0 -3
BITMAP
8080
c180
e380
f780
7f00
3e00
3e00
7f00
f780
e380
c180
8080
0000
0000
ENDCHAR
STARTCHAR eth
ENCODING 247
SWIDTH 562 0
DWIDTH 9 0
BBX 9 14 0 -3
BITMAP
2800
1000
2800
0400
3e00
4200
4200
4200
4200
4200
3c00
0000
0000
0000
ENDCHAR
STARTCHAR leftarrow
ENCODING 248
SWIDTH 562 0
DWIDTH 9 0
BBX 9 14 0 -3
BITMAP
0000
0000
0000
0000
1000
3000
7f80
3000
1000
0000
0000
0000
0000
0000
ENDCHAR
STARTCHAR thorn
ENCODING 249
SWIDTH 562 0
DWIDTH 9 0
BBX 9 14 0 -3
BITMAP
0000
0000
4000
4000
5c00
6200
4200
4200
4200
6200
5c00
4000
4000
0000
ENDCHAR
STARTCHAR keyleft
ENCODING 250
SWIDTH 562 0
DWIDTH 9 0
BBX 9 14 0 -3
BITMAP
0000
0000
0000
0e00
1100
1180
1100
0e00
0000
0000
0000
0000
0000
0000
ENDCHAR
STARTCHAR keyright
ENCODING 251
SWIDTH 562 0
DWIDTH 9 0
BBX 9 14 0 -3
BITMAP
0000
0000
0000
0000
0000
ff80
1d80
1d80
0180
0000
0000
0000
0000
0000
ENDCHAR
STARTCHAR box4
ENCODING 252
SWIDTH 562 0
DWIDTH 9 0
BBX 9 14 0 -3
BITMAP
0000
0000
ff80
8080
8480
8c80
9480
a480
be80
8480
8480
8080
ff80
0000
ENDCHAR
STARTCHAR underA
ENCODING 253
SWIDTH 562 0
DWIDTH 9 0
BBX 9 14 0 -3
BITMAP
0800
1400
2200
2200
3e00
2200
2200
0000
ff80
0000
0000
0000
0000
0000
ENDCHAR
STARTCHAR magcard
ENCODING 254
SWIDTH 562 0
DWIDTH 9 0
BBX 9 14 0 -3
BITMAP
0000
0000
0000
ff80
8080
8080
8080
ff80
8080
ff80
0000
0000
0000
0000
ENDCHAR
STARTCHAR boxhuman
ENCODING 255
SWIDTH 562 0
DWIDTH 9 0
BBX 9 14 0 -3
BITMAP
ff80
8080
9c80
9480
9c80
8880
ff80
8880
8880
9480
a280
c180
ff80
0000
ENDCHAR
STARTCHAR apl_Aunderbar
ENCODING 257
SWIDTH 562 0
DWIDTH 9 0
BBX 9 14 0 -3
BITMAP
0000
0000
0800
1400
2200
4100
4100
7f00
4100
4100
4100
0000
7f00
0000
ENDCHAR
STARTCHAR apl_upcarettilde
ENCODING 263
SWIDTH 562 0
DWIDTH 9 0
BBX 9 14 0 -3
BITMAP
3000
4900
0600
0000
0800
1400
2200
4100
0000
0000
0000
0000
0000
0000
ENDCHAR
STARTCHAR apl_del
ENCODING 266
SWIDTH 562 0
DWIDTH 9 0
BBX 9 14 0 -3
BITMAP
0000
0000
0000
7f00
4100
2200
2200
1400
1400
0800
0800
0000
0000
0000
ENDCHAR
STARTCHAR apl_delta
ENCODING 267
SWIDTH 562 0
DWIDTH 9 0
BBX 9 14 0 -3
BITMAP
0000
0000
0000
0800
0800
1400
1400
2200
2200
4100
7f00
0000
0000
0000
ENDCHAR
STARTCHAR apl_braceright
ENCODING 270
SWIDTH 562 0
DWIDTH 9 0
BBX 9 14 0 -3
BITMAP
0000
3000
0800
0800
0800
0800
0400
0800
0800
0800
0800
3000
0000
0000
ENDCHAR
STARTCHAR apl_braceleft
ENCODING 271
SWIDTH 562 0
DWIDTH 9 0
BBX 9 14 0 -3
BITMAP
0000
0c00
1000
1000
1000
1000
2000
1000
1000
1000
1000
0c00
0000
0000
ENDCHAR
STARTCHAR apl_space
ENCODING 272
SWIDTH 562 0
DWIDTH 9 0
BBX 9 14 0 -3
BITMAP
0000
0000
0000
0000
0000
0000
0000
0000
0000
0000
0000
0000
0000
0000
ENDCHAR
STARTCHAR apl_equalunderbar
ENCODING 277
SWIDTH 562 0
DWIDTH 9 0
BBX 9 14 0 -3
BITMAP
0000
0000
0000
0000
7f00
0000
7f00
0000
7f00
0000
0000
0000
0000
0000
ENDCHAR
STARTCHAR apl_epsilon
ENCODING 284
SWIDTH 562 0
DWIDTH 9 0
BBX 9 14 0 -3
BITMAP
0000
0000
0000
0000
1e00
2000
4000
7c00
4000
2000
1e00
0000
0000
0000
ENDCHAR
STARTCHAR apl_iota
ENCODING 285
SWIDTH 562 0
DWIDTH 9 0
BBX 9 14 0 -3
BITMAP
0000
0000
0000
0000
2000
2000
2000
2000
2000
2400
1800
0000
0000
0000
ENDCHAR
STARTCHAR apl_multiply
ENCODING 286
SWIDTH 562 0
DWIDTH 9 0
BBX 9 14 0 -3
BITMAP
0000
0000
0000
0000
2200
1400
0800
1400
2200
0000
0000
0000
0000
0000
ENDCHAR
STARTCHAR apl_leftarrow
ENCODING 287
SWIDTH 562 0
DWIDTH 9 0
BBX 9 14 0 -3
BITMAP
0000
0000
0000
0000
1000
3000
7f80
3000
1000
0000
0000
0000
0000
0000
ENDCHAR
STARTCHAR apl_super0
ENCODING 288
SWIDTH 562 0
DWIDTH 9 0
BBX 9 14 0 -3
BITMAP
0000
1800
2400
2400
2400
1800
0000
0000
0000
0000
0000
0000
0000
0000
ENDCHAR
STARTCHAR apl_super1
ENCODING 289
SWIDTH 562 0
DWIDTH 9 0
BBX 9 14 0 -3
BITMAP
0000
0800
1800
0800
0800
1c00
0000
0000
0000
0000
0000
0000
0000
0000
ENDCHAR
STARTCHAR apl_super2
ENCODING 290
SWIDTH 562 0
DWIDTH 9 0
BBX 9 14 0 -3
BITMAP
0000
3800
0400
1800
2000
3c00
0000
0000
0000
0000
0000
0000
0000
0000
ENDCHAR
STARTCHAR apl_super3
ENCODING 291
SWIDTH 562 0
DWIDTH 9 0
BBX 9 14 0 -3
BITMAP
0000
3800
0400
1800
0400
3800
0000
0000
0000
0000
0000
0000
0000
0000
ENDCHAR
STARTCHAR apl_super4
ENCODING 292
SWIDTH 562 0
DWIDTH 9 0
BBX 9 14 0 -3
BITMAP
0000
0800
1800
2800
3c00
0800
0000
0000
0000
0000
0000
0000
0000
0000
ENDCHAR
STARTCHAR apl_super5
ENCODING 293
SWIDTH 562 0
DWIDTH 9 0
BBX 9 14 0 -3
BITMAP
0000
3c00
2000
3800
0400
3800
0000
0000
0000
0000
0000
0000
0000
0000
ENDCHAR
STARTCHAR apl_super6
ENCODING 294
SWIDTH 562 0
DWIDTH 9 0
BBX 9 14 0 -3
BITMAP
0000
1800
2000
3800
2400
1800
0000
0000
0000
0000
0000
0000
0000
0000
ENDCHAR
STARTCHAR apl_super7
ENCODING 295
SWIDTH 562 0
DWIDTH 9 0
BBX 9 14 0 -3
BITMAP
0000
3c00
0400
0800
1000
1000
0000
0000
0000
0000
0000
0000
0000
0000
ENDCHAR
STARTCHAR apl_super8
ENCODING 296
SWIDTH 562 0
DWIDTH 9 0
BBX 9 14 0 -3
BITMAP
0000
1800
2400
1800
2400
1800
0000
0000
0000
0000
0000
0000
0000
0000
ENDCHAR
STARTCHAR apl_super9
ENCODING 297
SWIDTH 562 0
DWIDTH 9 0
BBX 9 14 0 -3
BITMAP
0000
1800
2400
1c00
0400
1800
0000
0000
0000
0000
0000
0000
0000
0000
ENDCHAR
STARTCHAR apl_Runderbar
ENCODING 298
SWIDTH 562 0
DWIDTH 9 0
BBX 9 14 0 -3
BITMAP
0000
0000
7e00
4100
4100
4100
7e00
4800
4400
4200
4100
0000
7f00
0000
ENDCHAR
STARTCHAR apl_uptack
ENCODING 311
SWIDTH 562 0
DWIDTH 9 0
BBX 9 14 0 -3
BITMAP
0000
0000
0000
0000
3e00
0800
0800
0800
0800
0800
0800
0000
0000
0000
ENDCHAR
STARTCHAR apl_quad
ENCODING 312
SWIDTH 562 0
DWIDTH 9 0
BBX 9 14 0 -3
BITMAP
7f00
4100
4100
4100
4100
4100
4100
4100
4100
4100
7f00
0000
0000
0000
ENDCHAR
STARTCHAR apl_rho
ENCODING 313
SWIDTH 562 0
DWIDTH 9 0
BBX 9 14 0 -3
BITMAP
0000
0000
0000
0000
1c00
2200
4100
4100
4100
6200
5c00
4000
4000
4000
ENDCHAR
STARTCHAR apl_alpha
ENCODING 314
SWIDTH 562 0
DWIDTH 9 0
BBX 9 14 0 -3
BITMAP
0000
0000
0000
0000
1900
2500
4200
4200
4200
2500
1900
0000
0000
0000
ENDCHAR
STARTCHAR apl_degree
ENCODING 315
SWIDTH 562 0
DWIDTH 9 0
BBX 9 14 0 -3
BITMAP
0000
0000
0c00
1200
1200
0c00
0000
0000
0000
0000
0000
0000
0000
0000
ENDCHAR
STARTCHAR apl_bracketright
ENCODING 316
SWIDTH 562 0
DWIDTH 9 0
BBX 9 14 0 -3
BITMAP
0000
1c00
0400
0400
0400
0400
0400
0400
0400
0400
0400
1c00
0000
0000
ENDCHAR
STARTCHAR apl_notequal
ENCODING 318
SWIDTH 562 0
DWIDTH 9 0
BBX 9 14 0 -3
BITMAP
0000
0000
0000
0200
0400
7e00
0800
1000
7e00
2000
4000
0000
0000
0000
ENDCHAR
STARTCHAR apl_circle
ENCODING 319
SWIDTH 562 0
DWIDTH 9 0
BBX 9 14 0 -3
BITMAP
0000
0000
0000
1c00
2200
4100
4100
4100
2200
1c00
0000
0000
0000
0000
ENDCHAR
STARTCHAR apl_Dunderbar
ENCODING 320
SWIDTH 562 0
DWIDTH 9 0
BBX 9 14 0 -3
BITMAP
0000
0000
7c00
2200
2100
2100
2100
2100
2100
2200
7c00
0000
7f00
0000
ENDCHAR
STARTCHAR apl_Munderbar
ENCODING 321
SWIDTH 562 0
DWIDTH 9 0
BBX 9 14 0 -3
BITMAP
0000
0000
4100
6300
5500
4900
4900
4100
4100
4100
4100
0000
7f00
0000
ENDCHAR
STARTCHAR apl_Qunderbar
ENCODING 322
SWIDTH 562 0
DWIDTH 9 0
BBX 9 14 0 -3
BITMAP
0000
0000
1c00
2200
4100
4100
4100
4100
4900
2a00
1c00
0200
7f00
0000
ENDCHAR
STARTCHAR apl_circlestile
ENCODING 323
SWIDTH 562 0
DWIDTH 9 0
BBX 9 14 0 -3
BITMAP
0000
0800
0800
1c00
2a00
4900
4900
4900
2a00
1c00
0800
0800
0000
0000
ENDCHAR
STARTCHAR apl_deltastile
ENCODING 324
SWIDTH 562 0
DWIDTH 9 0
BBX 9 14 0 -3
BITMAP
0800
0800
0800
1c00
1c00
2a00
2a00
4900
7f00
0800
0800
0000
0000
0000
ENDCHAR
STARTCHAR apl_Funderbar
ENCODING 325
SWIDTH 562 0
DWIDTH 9 0
BBX 9 14 0 -3
BITMAP
0000
0000
7f00
4000
4000
4000
7e00
4000
4000
4000
4000
0000
7f00
0000
ENDCHAR
STARTCHAR apl_circleslope
ENCODING 326
SWIDTH 562 0
DWIDTH 9 0
BBX 9 14 0 -3
BITMAP
0000
0000
0000
5c00
2200
5100
4900
4500
2200
1d00
0000
0000
0000
0000
ENDCHAR
STARTCHAR apl_upshoejot
ENCODING 327
SWIDTH 562 0
DWIDTH 9 0
BBX 9 14 0 -3
BITMAP
0000
0000
0000
0000
1c00
2200
3600
2a00
2200
2200
0000
0000
0000
0000
ENDCHAR
STARTCHAR apl_bracketleft
ENCODING 328
SWIDTH 562 0
DWIDTH 9 0
BBX 9 14 0 -3
BITMAP
0000
1c00
1000
1000
1000
1000
1000
1000
1000
1000
1000
1c00
0000
0000
ENDCHAR
STARTCHAR apl_upstile
ENCODING 329
SWIDTH 562 0
DWIDTH 9 0
BBX 9 14 0 -3
BITMAP
0000
0000
1c00
1000
1000
1000
1000
1000
1000
1000
1000
0000
0000
0000
ENDCHAR
STARTCHAR apl_Junderbar
ENCODING 330
SWIDTH 562 0
DWIDTH 9 0
BBX 9 14 0 -3
BITMAP
0000
0000
0e00
0400
0400
0400
0400
0400
4400
4400
3800
0000
7e00
0000
ENDCHAR
STARTCHAR apl_slope
ENCODING 331
SWIDTH 562 0
DWIDTH 9 0
BBX 9 14 0 -3
BITMAP
0000
0000
0000
0000
2000
1000
0800
0400
0200
0000
0000
0000
0000
0000
ENDCHAR
STARTCHAR apl_divide
ENCODING 332
SWIDTH 562 0
DWIDTH 9 0
BBX 9 14 0 -3
BITMAP
0000
0000
0000
1800
1800
0000
7e00
0000
1800
1800
0000
0000
0000
0000
ENDCHAR
STARTCHAR apl_delstile
ENCODING 334
SWIDTH 562 0
DWIDTH 9 0
BBX 9 14 0 -3
BITMAP
0800
0800
7f00
4900
2a00
2a00
1c00
1c00
0800
0800
0800
0000
0000
0000
ENDCHAR
STARTCHAR apl_Hunderbar
ENCODING 335
SWIDTH 562 0
DWIDTH 9 0
BBX 9 14 0 -3
BITMAP
0000
0000
4100
4100
4100
4100
7f00
4100
4100
4100
4100
0000
7f00
0000
ENDCHAR
STARTCHAR apl_Cunderbar
ENCODING 336
SWIDTH 562 0
DWIDTH 9 0
BBX 9 14 0 -3
BITMAP
0000
0000
0e00
1100
2000
4000
4000
4000
2000
1100
0e00
0000
7f00
0000
ENDCHAR
STARTCHAR apl_Lunderbar
ENCODING 337
SWIDTH 562 0
DWIDTH 9 0
BBX 9 14 0 -3
BITMAP
0000
0000
4000
4000
4000
4000
4000
4000
4000
4000
7f00
0000
7f00
0000
ENDCHAR
STARTCHAR apl_Punderbar
ENCODING 338
SWIDTH 562 0
DWIDTH 9 0
BBX 9 14 0 -3
BITMAP
0000
0000
7c00
4200
4100
4100
4200
7c00
4000
4000
4000
0000
7f00
0000
ENDCHAR
STARTCHAR apl_squad
ENCODING 339
SWIDTH 562 0
DWIDTH 9 0
BBX 9 14 0 -3
BITMAP
3c00
2400
2400
2400
2400
2400
2400
2400
2400
2400
3c00
0000
0000
0000
ENDCHAR
STARTCHAR apl_overbar
ENCODING 340
SWIDTH 562 0
DWIDTH 9 0
BBX 9 14 0 -3
BITMAP
0000
7f00
0000
0000
0000
0000
0000
0000
0000
0000
0000
0000
0000
0000
ENDCHAR
STARTCHAR apl_Bunderbar
ENCODING 341
SWIDTH 562 0
DWIDTH 9 0
BBX 9 14 0 -3
BITMAP
0000
0000
7c00
2200
2100
2200
3c00
2200
2100
2200
7c00
0000
7f00
0000
ENDCHAR
STARTCHAR apl_Kunderbar
ENCODING 342
SWIDTH 562 0
DWIDTH 9 0
BBX 9 14 0 -3
BITMAP
0000
0000
4100
4200
4400
4800
5000
6800
4400
4200
4100
0000
7f00
0000
ENDCHAR
STARTCHAR apl_Ounderbar
ENCODING 343
SWIDTH 562 0
DWIDTH 9 0
BBX 9 14 0 -3
BITMAP
0000
0000
3e00
4100
4100
4100
4100
4100
4100
4100
3e00
0000
7f00
0000
ENDCHAR
STARTCHAR apl_downcarettilde
ENCODING 344
SWIDTH 562 0
DWIDTH 9 0
BBX 9 14 0 -3
BITMAP
3000
4900
0600
0000
4100
2200
1400
0800
0000
0000
0000
0000
0000
0000
ENDCHAR
STARTCHAR apl_quotedot
ENCODING 345
SWIDTH 562 0
DWIDTH 9 0
BBX 9 14 0 -3
BITMAP
0000
1800
1800
0800
0800
0800
0000
0000
0000
1800
1800
0000
0000
0000
ENDCHAR
STARTCHAR apl_Eunderbar
ENCODING 346
SWIDTH 562 0
DWIDTH 9 0
BBX 9 14 0 -3
BITMAP
0000
0000
7f00
4000
4000
4000
7c00
4000
4000
4000
7f00
0000
7f00
0000
ENDCHAR
STARTCHAR apl_stile
ENCODING 347
SWIDTH 562 0
DWIDTH 9 0
BBX 9 14 0 -3
BITMAP
0800
0800
0800
0800
0800
0800
0800
0800
0800
0800
0800
0800
0800
0800
ENDCHAR
STARTCHAR apl_Nunderbar
ENCODING 348
SWIDTH 562 0
DWIDTH 9 0
BBX 9 14 0 -3
BITMAP
0000
0000
4100
6100
5100
4900
4500
4300
4100
4100
4100
0000
7f00
0000
ENDCHAR
STARTCHAR apl_quadslope
ENCODING 349
SWIDTH 562 0
DWIDTH 9 0
BBX 9 14 0 -3
BITMAP
7f00
4100
4100
6100
5100
4900
4500
4300
4100
4100
7f00
0000
0000
0000
ENDCHAR
STARTCHAR apl_quadquote
ENCODING 350
SWIDTH 562 0
DWIDTH 9 0
BBX 9 14 0 -3
BITMAP
7f00
5900
4900
4900
4900
4100
4100
4100
4100
4100
7f00
0000
0000
0000
ENDCHAR
STARTCHAR apl_Iunderbar
ENCODING 351
SWIDTH 562 0
DWIDTH 9 0
BBX 9 14 0 -3
BITMAP
0000
0000
1c00
0800
0800
0800
0800
0800
0800
0800
1c00
0000
1c00
0000
ENDCHAR
STARTCHAR apl_Uunderbar
ENCODING 352
SWIDTH 562 0
DWIDTH 9 0
BBX 9 14 0 -3
BITMAP
0000
0000
4100
4100
4100
4100
4100
4100
4100
4100
3e00
0000
7f00
0000
ENDCHAR
STARTCHAR apl_iotaunderbar
ENCODING 353
SWIDTH 562 0
DWIDTH 9 0
BBX 9 14 0 -3
BITMAP
0000
0000
0000
0000
2000
2000
2000
2000
2000
2400
1800
0000
3c00
0000
ENDCHAR
STARTCHAR apl_downcaret
ENCODING 354
SWIDTH 562 0
DWIDTH 9 0
BBX 9 14 0 -3
BITMAP
0000
2200
1400
0800
0000
0000
0000
0000
0000
0000
0000
0000
0000
0000
ENDCHAR
STARTCHAR apl_circlebar
ENCODING 355
SWIDTH 562 0
DWIDTH 9 0
BBX 9 14 0 -3
BITMAP
0000
0000
0000
1c00
2200
4100
7f00
4100
2200
1c00
0000
0000
0000
0000
ENDCHAR
STARTCHAR apl_circlestar
ENCODING 356
SWIDTH 562 0
DWIDTH 9 0
BBX 9 14 0 -3
BITMAP
0000
0000
0000
1c00
2a00
5d00
4900
5500
2200
1c00
0000
0000
0000
0000
ENDCHAR
STARTCHAR apl_Wunderbar
ENCODING 357
SWIDTH 562 0
DWIDTH 9 0
BBX 9 14 0 -3
BITMAP
0000
0000
4100
4100
4100
4100
4900
4900
4900
5500
2200
0000
7f00
0000
ENDCHAR
STARTCHAR apl_uptackjot
ENCODING 358
SWIDTH 562 0
DWIDTH 9 0
BBX 9 14 0 -3
BITMAP
0000
0000
0000
3e00
0800
1c00
2a00
2a00
1c00
0800
0800
0000
0000
0000
ENDCHAR
STARTCHAR apl_downtackup
ENCODING 359
SWIDTH 562 0
DWIDTH 9 0
BBX 9 14 0 -3
BITMAP
0000
0000
0000
0000
3e00
0800
0800
0800
0800
0800
3e00
0000
0000
0000
ENDCHAR
STARTCHAR apl_slashbar
ENCODING 360
SWIDTH 562 0
DWIDTH 9 0
BBX 9 14 0 -3
BITMAP
0000
0000
0000
0000
0200
0400
7f00
1000
2000
0000
0000
0000
0000
0000
ENDCHAR
STARTCHAR apl_rightshoe
ENCODING 362
SWIDTH 562 0
DWIDTH 9 0
BBX 9 14 0 -3
BITMAP
0000
0000
0000
0000
3c00
0200
0200
0200
3c00
0000
0000
0000
0000
0000
ENDCHAR
STARTCHAR apl_leftshoe
ENCODING 363
SWIDTH 562 0
DWIDTH 9 0
BBX 9 14 0 -3
BITMAP
0000
0000
0000
0000
1e00
2000
2000
2000
1e00
0000
0000
0000
0000
0000
ENDCHAR
STARTCHAR apl_uparrow
ENCODING 364
SWIDTH 562 0
DWIDTH 9 0
BBX 9 14 0 -3
BITMAP
0000
0000
0000
0800
1c00
3e00
0800
0800
0800
0800
0800
0000
0000
0000
ENDCHAR
STARTCHAR apl_downarrow
ENCODING 365
SWIDTH 562 0
DWIDTH 9 0
BBX 9 14 0 -3
BITMAP
0000
0000
0000
0800
0800
0800
0800
0800
3e00
1c00
0800
0000
0000
0000
ENDCHAR
STARTCHAR apl_upshoe
ENCODING 366
SWIDTH 562 0
DWIDTH 9 0
BBX 9 14 0 -3
BITMAP
0000
0000
0000
0000
1c00
2200
2200
2200
2200
2200
0000
0000
0000
0000
ENDCHAR
STARTCHAR apl_downshoe
ENCODING 367
SWIDTH 562 0
DWIDTH 9 0
BBX 9 14 0 -3
BITMAP
0000
0000
0000
0000
0000
2200
2200
2200
2200
2200
1c00
0000
0000
0000
ENDCHAR
STARTCHAR apl_Tunderbar
ENCODING 368
SWIDTH 562 0
DWIDTH 9 0
BBX 9 14 0 -3
BITMAP
0000
0000
7f00
0800
0800
0800
0800
0800
0800
0800
0800
0000
7f00
0000
ENDCHAR
STARTCHAR apl_quadjot
ENCODING 369
SWIDTH 562 0
DWIDTH 9 0
BBX 9 14 0 -3
BITMAP
7f00
4100
4100
5d00
6300
6300
6300
5d00
4100
4100
7f00
0000
0000
0000
ENDCHAR
STARTCHAR apl_righttack
ENCODING 370
SWIDTH 562 0
DWIDTH 9 0
BBX 9 14 0 -3
BITMAP
0000
0000
0000
0200
0200
0200
3e00
0200
0200
0200
0000
0000
0000
0000
ENDCHAR
STARTCHAR apl_diaeresisdot
ENCODING 371
SWIDTH 562 0
DWIDTH 9 0
BBX 9 14 0 -3
BITMAP
0000
6300
6300
0000
0000
0000
0000
0000
1800
1800
0000
0000
0000
0000
ENDCHAR
STARTCHAR apl_deltaunderbar
ENCODING 372
SWIDTH 562 0
DWIDTH 9 0
BBX 9 14 0 -3
BITMAP
0000
0800
0800
1400
1400
2200
2200
4100
7f00
0000
7f00
0000
0000
0000
ENDCHAR
STARTCHAR apl_Sunderbar
ENCODING 373
SWIDTH 562 0
DWIDTH 9 0
BBX 9 14 0 -3
BITMAP
0000
0000
3e00
4100
4000
3000
0800
0600
0100
4100
3e00
0000
7f00
0000
ENDCHAR
STARTCHAR apl_diaeresis
ENCODING 374
SWIDTH 562 0
DWIDTH 9 0
BBX 9 14 0 -3
BITMAP
0000
6300
6300
0000
0000
0000
0000
0000
0000
0000
0000
0000
0000
0000
ENDCHAR
STARTCHAR apl_lefttack
ENCODING 375
SWIDTH 562 0
DWIDTH 9 0
BBX 9 14 0 -3
BITMAP
0000
0000
0000
2000
2000
2000
3e00
2000
2000
2000
0000
0000
0000
0000
ENDCHAR
STARTCHAR apl_slopebar
ENCODING 376
SWIDTH 562 0
DWIDTH 9 0
BBX 9 14 0 -3
BITMAP
0000
0000
0000
0000
2000
1000
7f00
0400
0200
0000
0000
0000
0000
0000
ENDCHAR
STARTCHAR apl_deltilde
ENCODING 377
SWIDTH 562 0
DWIDTH 9 0
BBX 9 14 0 -3
BITMAP
0000
0000
7f00
4100
2200
3200
5d00
1600
0800
0800
0000
0000
0000
0000
ENDCHAR
STARTCHAR apl_Vunderbar
ENCODING 378
SWIDTH 562 0
DWIDTH 9 0
BBX 9 14 0 -3
BITMAP
0000
0000
4100
4100
2200
2200
2200
1400
1400
0800
0800
0000
7f00
0000
ENDCHAR
STARTCHAR apl_upcaret
ENCODING 379
SWIDTH 562 0
DWIDTH 9 0
BBX 9 14 0 -3
BITMAP
0000
0800
1400
2200
0000
0000
0000
0000
0000
0000
0000
0000
0000
0000
ENDCHAR
STARTCHAR apl_epsilonunderbar
ENCODING 380
SWIDTH 562 0
DWIDTH 9 0
BBX 9 14 0 -3
BITMAP
0000
0000
0000
0000
1e00
2000
4000
7c00
4000
2000
1e00
0000
7e00
0000
ENDCHAR
STARTCHAR apl_quaddivide
ENCODING 381
SWIDTH 562 0
DWIDTH 9 0
BBX 9 14 0 -3
BITMAP
7f00
4100
4900
4900
4100
7f00
4100
4900
4900
4100
7f00
0000
0000
0000
ENDCHAR
STARTCHAR apl_downtackjot
ENCODING 382
SWIDTH 562 0
DWIDTH 9 0
BBX 9 14 0 -3
BITMAP
0000
0000
0000
0800
0800
1c00
2a00
2a00
1c00
0800
3e00
0000
0000
0000
ENDCHAR
STARTCHAR apl_Zunderbar
ENCODING 383
SWIDTH 562 0
DWIDTH 9 0
BBX 9 14 0 -3
BITMAP
0000
0000
7f00
0100
0200
0400
0800
1000
2000
4000
7f00
0000
7f00
0000
ENDCHAR
STARTCHAR apl_2vertical
ENCODING 384
SWIDTH 562 0
DWIDTH 9 0
BBX 9 14 0 -3
BITMAP
4100
4100
4100
4100
4100
4100
4100
4100
4100
4100
4100
4100
4100
4100
ENDCHAR
STARTCHAR apl_2horizontal
ENCODING 385
SWIDTH 562 0
DWIDTH 9 0
BBX 9 14 0 -3
BITMAP
0000
ff80
0000
0000
0000
0000
0000
0000
0000
0000
0000
0000
ff80
0000
ENDCHAR
STARTCHAR apl_leftvbar
ENCODING 386
SWIDTH 562 0
DWIDTH 9 0
BBX 9 14 0 -3
BITMAP
4000
4000
4000
4000
4000
4000
4000
4000
4000
4000
4000
4000
4000
4000
ENDCHAR
STARTCHAR apl_rightvbar
ENCODING 387
SWIDTH 562 0
DWIDTH 9 0
BBX 9 14 0 -3
BITMAP
0100
0100
0100
0100
0100
0100
0100
0100
0100
0100
0100
0100
0100
0100
ENDCHAR
STARTCHAR apl_midvbar
ENCODING 388
SWIDTH 562 0
DWIDTH 9 0
BBX 9 14 0 -3
BITMAP
0800
0800
0800
0800
0800
0800
0800
0800
0800
0800
0800
0800
0800
0800
ENDCHAR
STARTCHAR apl_leftsolid
ENCODING 393
SWIDTH 562 0
DWIDTH 9 0
BBX 9 14 0 -3
BITMAP
f800
f800
f800
f800
f800
f800
f800
f800
f800
f800
f800
f800
f800
f800
ENDCHAR
STARTCHAR apl_rightsolid
ENCODING 394
SWIDTH 562 0
DWIDTH 9 0
BBX 9 14 0 -3
BITMAP
0f80
0f80
0f80
0f80
0f80
0f80
0f80
0f80
0f80
0f80
0f80
0f80
0f80
0f80
ENDCHAR
STARTCHAR apl_topsolid
ENCODING 395
SWIDTH 562 0
DWIDTH 9 0
BBX 9 14 0 -3
BITMAP
ff80
ff80
ff80
ff80
ff80
ff80
ff80
0000
0000
0000
0000
0000
0000
0000
ENDCHAR
STARTCHAR apl_bottomsolid
ENCODING 396
SWIDTH 562 0
DWIDTH 9 0
BBX 9 14 0 -3
BITMAP
0000
0000
0000
0000
0000
0000
ff80
ff80
ff80
ff80
ff80
ff80
ff80
ff80
ENDCHAR
STARTCHAR apl_solid
ENCODING 397
SWIDTH 562 0
DWIDTH 9 0
BBX 9 14 0 -3
BITMAP
ff80
ff80
ff80
ff80
ff80
ff80
ff80
ff80
ff80
ff80
ff80
ff80
ff80
ff80
ENDCHAR
STARTCHAR apl_midhbar
ENCODING 402
SWIDTH 562 0
DWIDTH 9 0
BBX 9 14 0 -3
BITMAP
0000
0000
0000
0000
0000
0000
ff80
0000
0000
0000
0000
0000
0000
0000
ENDCHAR
STARTCHAR apl_solidcircle
ENCODING 403
SWIDTH 562 0
DWIDTH 9 0
BBX 9 14 0 -3
BITMAP
0000
0000
0000
0000
0000
1c00
1c00
1c00
0000
0000
0000
0000
0000
0000
ENDCHAR
STARTCHAR apl_subn
ENCODING 404
SWIDTH 562 0
DWIDTH 9 0
BBX 9 14 0 -3
BITMAP
0000
0000
0000
0000
0000
0000
0000
3800
2400
2400
2400
0000
0000
0000
ENDCHAR
STARTCHAR apl_splat
ENCODING 410
SWIDTH 562 0
DWIDTH 9 0
BBX 9 14 0 -3
BITMAP
0000
4100
3e00
2200
2200
2200
2200
2200
2200
3e00
4100
0000
0000
0000
ENDCHAR
STARTCHAR apl_diamond
ENCODING 411
SWIDTH 562 0
DWIDTH 9 0
BBX 9 14 0 -3
BITMAP
0000
0000
0800
1400
2200
4100
2200
1400
0800
0000
0000
0000
0000
0000
ENDCHAR
STARTCHAR apl_Gunderbar
ENCODING 412
SWIDTH 562 0
DWIDTH 9 0
BBX 9 14 0 -3
BITMAP
0000
0000
1c00
2200
4000
4000
4000
4f00
4200
2200
1e00
0000
7f00
0000
ENDCHAR
STARTCHAR apl_sub1
ENCODING 413
SWIDTH 562 0
DWIDTH 9 0
BBX 9 14 0 -3
BITMAP
0000
0000
0000
0000
0000
0000
0000
0800
1800
0800
0800
1c00
0000
0000
ENDCHAR
STARTCHAR apl_superlparen
ENCODING 416
SWIDTH 562 0
DWIDTH 9 0
BBX 9 14 0 -3
BITMAP
0000
0800
1000
1000
1000
1000
0800
0000
0000
0000
0000
0000
0000
0000
ENDCHAR
STARTCHAR apl_plus2
ENCODING 417
SWIDTH 562 0
DWIDTH 9 0
BBX 9 14 0 -3
BITMAP
0000
0000
0000
0000
0800
0800
3e00
0800
0800
0000
0000
0000
0000
0000
ENDCHAR
STARTCHAR apl_solidbox
ENCODING 418
SWIDTH 562 0
DWIDTH 9 0
BBX 9 14 0 -3
BITMAP
0000
0000
0000
0000
3e00
3e00
3e00
3e00
3e00
0000
0000
0000
0000
0000
ENDCHAR
STARTCHAR apl_lowerleft
ENCODING 419
SWIDTH 562 0
DWIDTH 9 0
BBX 9 14 0 -3
BITMAP
0800
0800
0800
0800
0800
0800
0f80
0000
0000
0000
0000
0000
0000
0000
ENDCHAR
STARTCHAR apl_upperleft
ENCODING 420
SWIDTH 562 0
DWIDTH 9 0
BBX 9 14 0 -3
BITMAP
0000
0000
0000
0000
0000
0000
0f80
0800
0800
0800
0800
0800
0800
0800
ENDCHAR
STARTCHAR apl_leftjoin
ENCODING 421
SWIDTH 562 0
DWIDTH 9 0
BBX 9 14 0 -3
BITMAP
0800
0800
0800
0800
0800
0800
0f80
0800
0800
0800
0800
0800
0800
0800
ENDCHAR
STARTCHAR apl_bottomjoin
ENCODING 422
SWIDTH 562 0
DWIDTH 9 0
BBX 9 14 0 -3
BITMAP
0800
0800
0800
0800
0800
0800
ff80
0000
0000
0000
0000
0000
0000
0000
ENDCHAR
STARTCHAR apl_section
ENCODING 423
SWIDTH 562 0
DWIDTH 9 0
BBX 9 14 0 -3
BITMAP
0000
1c00
2000
2000
5000
4800
4400
2200
1200
0a00
0400
0400
3800
0000
ENDCHAR
STARTCHAR apl_superrparen
ENCODING 425
SWIDTH 562 0
DWIDTH 9 0
BBX 9 14 0 -3
BITMAP
0000
0800
0400
0400
0400
0400
0800
0000
0000
0000
0000
0000
0000
0000
ENDCHAR
STARTCHAR apl_minus2
ENCODING 426
SWIDTH 562 0
DWIDTH 9 0
BBX 9 14 0 -3
BITMAP
0000
0000
0000
0000
0000
0000
3e00
0000
0000
0000
0000
0000
0000
0000
ENDCHAR
STARTCHAR apl_intersect
ENCODING 427
SWIDTH 562 0
DWIDTH 9 0
BBX 9 14 0 -3
BITMAP
0800
0800
0800
0800
0800
0800
ff80
0800
0800
0800
0800
0800
0800
0800
ENDCHAR
STARTCHAR apl_lowerright
ENCODING 428
SWIDTH 562 0
DWIDTH 9 0
BBX 9 14 0 -3
BITMAP
0800
0800
0800
0800
0800
0800
f800
0000
0000
0000
0000
0000
0000
0000
ENDCHAR
STARTCHAR apl_upperright
ENCODING 429
SWIDTH 562 0
DWIDTH 9 0
BBX 9 14 0 -3
BITMAP
0000
0000
0000
0000
0000
0000
f800
0800
0800
0800
0800
0800
0800
0800
ENDCHAR
STARTCHAR apl_rightjoin
ENCODING 430
SWIDTH 562 0
DWIDTH 9 0
BBX 9 14 0 -3
BITMAP
0800
0800
0800
0800
0800
0800
f800
0800
0800
0800
0800
0800
0800
0800
ENDCHAR
STARTCHAR apl_topjoin
ENCODING 431
SWIDTH 562 0
DWIDTH 9 0
BBX 9 14 0 -3
BITMAP
0000
0000
0000
0000
0000
0000
ff80
0800
0800
0800
0800
0800
0800
0800
ENDCHAR
STARTCHAR apl_paragraph
ENCODING 432
SWIDTH 562 0
DWIDTH 9 0
BBX 9 14 0 -3
BITMAP
0000
0000
0000
3f00
7a00
7a00
3a00
0a00
0a00
0a00
0a00
0000
0000
0000
ENDCHAR
STARTCHAR apl_sub2
ENCODING 434
SWIDTH 562 0
DWIDTH 9 0
BBX 9 14 0 -3
BITMAP
0000
0000
0000
0000
0000
0000
0000
3800
0400
1800
2000
3c00
0000
0000
ENDCHAR
STARTCHAR apl_sub3
ENCODING 435
SWIDTH 562 0
DWIDTH 9 0
BBX 9 14 0 -3
BITMAP
0000
0000
0000
0000
0000
0000
0000
3800
0400
1800
0400
3800
0000
0000
ENDCHAR
STARTCHAR apl_dieresisjot
ENCODING 436
SWIDTH 562 0
DWIDTH 9 0
BBX 9 14 0 -3
BITMAP
0000
0000
6300
6300
0000
1800
2400
2400
1800
0000
0000
0000
0000
0000
ENDCHAR
STARTCHAR apl_dieresiscircle
ENCODING 437
SWIDTH 562 0
DWIDTH 9 0
BBX 9 14 0 -3
BITMAP
0000
6300
6300
0000
1c00
2200
4100
4100
4100
2200
1c00
0000
0000
0000
ENDCHAR
STARTCHAR apl_commabar
ENCODING 438
SWIDTH 562 0
DWIDTH 9 0
BBX 9 14 0 -3
BITMAP
0000
0000
0000
0000
0000
0000
3e00
0000
0000
0c00
0c00
1800
3000
0000
ENDCHAR
STARTCHAR apl_euro
ENCODING 439
SWIDTH 562 0
DWIDTH 9 0
BBX 9 14 0 -3
BITMAP
0000
0000
1e00
2100
2000
de00
2000
dc00
2000
2100
1e00
0000
0000
0000
ENDCHAR
STARTCHAR apl_plusminus
ENCODING 442
SWIDTH 562 0
DWIDTH 9 0
BBX 9 14 0 -3
BITMAP
0000
0000
0800
0800
0800
7f00
0800
0800
0800
0000
7f00
0000
0000
0000
ENDCHAR
STARTCHAR apl_tilde
ENCODING 443
SWIDTH 562 0
DWIDTH 9 0
BBX 9 14 0 -3
BITMAP
0000
3000
4900
0600
0000
0000
0000
0000
0000
0000
0000
0000
0000
0000
ENDCHAR
STARTCHAR apl_Xunderbar
ENCODING 444
SWIDTH 562 0
DWIDTH 9 0
BBX 9 14 0 -3
BITMAP
0000
0000
4100
4100
2200
1400
0800
1400
2200
4100
4100
0000
7f00
0000
ENDCHAR
STARTCHAR apl_Yunderbar
ENCODING 445
SWIDTH 562 0
DWIDTH 9 0
BBX 9 14 0 -3
BITMAP
0000
0000
4100
2200
1400
0800
0800
0800
0800
0800
0800
0000
7f00
0000
ENDCHAR
STARTCHAR apl_omega
ENCODING 464
SWIDTH 562 0
DWIDTH 9 0
BBX 9 14 0 -3
BITMAP
0000
0000
0000
0000
0000
0000
2200
4100
4900
4900
3600
0000
0000
0000
ENDCHAR
STARTCHAR apl_jot
ENCODING 465
SWIDTH 562 0
DWIDTH 9 0
BBX 9 14 0 -3
BITMAP
0000
0000
0000
0000
0000
1800
2400
2400
1800
0000
0000
0000
0000
0000
ENDCHAR
STARTCHAR apl_rightarrow
ENCODING 470
SWIDTH 562 0
DWIDTH 9 0
BBX 9 14 0 -3
BITMAP
0000
0000
0000
0000
0400
0600
ff00
0600
0400
0000
0000
0000
0000
0000
ENDCHAR
STARTCHAR apl_downtack
ENCODING 471
SWIDTH 562 0
DWIDTH 9 0
BBX 9 14 0 -3
BITMAP
0000
0000
0000
0000
0800
0800
0800
0800
0800
0800
3e00
0000
0000
0000
ENDCHAR
STARTCHAR apl_notless
ENCODING 473
SWIDTH 562 0
DWIDTH 9 0
BBX 9 14 0 -3
BITMAP
0000
0000
0000
6000
1800
0600
1800
6000
0000
7e00
0000
0000
0000
0000
ENDCHAR
STARTCHAR apl_notgreater
ENCODING 503
SWIDTH 562 0
DWIDTH 9 0
BBX 9 14 0 -3
BITMAP
0000
0000
0000
0600
1800
6000
1800
0600
0000
7e00
0000
0000
0000
0000
ENDCHAR
STARTCHAR apl_downstile
ENCODING 505
SWIDTH 562 0
DWIDTH 9 0
BBX 9 14 0 -3
BITMAP
0000
0000
1000
1000
1000
1000
1000
1000
1000
1000
1c00
0000
0000
0000
ENDCHAR
STARTCHAR 200
ENCODING 512
SWIDTH 562 0
DWIDTH 9 0
BBX 9 14 0 -3
BITMAP
3e00
3e00
3e00
3e00
3e00
3e00
3e00
3e00
3e00
3e00
3e00
3e00
3e00
3e00
ENDCHAR
STARTCHAR 201
ENCODING 513
SWIDTH 562 0
DWIDTH 9 0
BBX 9 14 0 -3
BITMAP
0000
0000
0000
0000
0800
1c00
3e00
1c00
0800
0000
0000
0000
0000
0000
ENDCHAR
STARTCHAR 202
ENCODING 514
SWIDTH 562 0
DWIDTH 9 0
BBX 9 14 0 -3
BITMAP
aa80
5500
aa80
5500
aa80
5500
aa80
5500
aa80
5500
aa80
5500
aa80
5500
ENDCHAR
STARTCHAR 203
ENCODING 515
SWIDTH 562 0
DWIDTH 9 0
BBX 9 14 0 -3
BITMAP
0000
5000
5000
7000
5000
5000
0000
0700
0200
0200
0200
0200
0000
0000
ENDCHAR
STARTCHAR 204
ENCODING 516
SWIDTH 562 0
DWIDTH 9 0
BBX 9 14 0 -3
BITMAP
0000
7000
4000
6000
4000
4000
0000
0700
0400
0600
0400
0400
0000
0000
ENDCHAR
STARTCHAR 205
ENCODING 517
SWIDTH 562 0
DWIDTH 9 0
BBX 9 14 0 -3
BITMAP
0000
3000
4000
4000
4000
3000
0000
0600
0500
0600
0500
0500
0000
0000
ENDCHAR
STARTCHAR 206
ENCODING 518
SWIDTH 562 0
DWIDTH 9 0
BBX 9 14 0 -3
BITMAP
0000
4000
4000
4000
4000
7000
0000
0700
0400
0600
0400
0400
0000
0000
ENDCHAR
STARTCHAR 207
ENCODING 519
SWIDTH 562 0
DWIDTH 9 0
BBX 9 14 0 -3
BITMAP
0000
1800
2400
2400
1800
0000
0000
0000
0000
0000
0000
0000
0000
0000
ENDCHAR
STARTCHAR 208
ENCODING 520
SWIDTH 562 0
DWIDTH 9 0
BBX 9 14 0 -3
BITMAP
0000
0000
0000
0800
0800
3e00
0800
0800
0000
3e00
0000
0000
0000
0000
ENDCHAR
STARTCHAR 209
ENCODING 521
SWIDTH 562 0
DWIDTH 9 0
BBX 9 14 0 -3
BITMAP
0000
4800
6800
5800
4800
4800
0000
0400
0400
0400
0400
0700
0000
0000
ENDCHAR
STARTCHAR 20a
ENCODING 522
SWIDTH 562 0
DWIDTH 9 0
BBX 9 14 0 -3
BITMAP
0000
5000
5000
5000
2000
2000
0000
0700
0200
0200
0200
0200
0000
0000
ENDCHAR
STARTCHAR 20b
ENCODING 523
SWIDTH 562 0
DWIDTH 9 0
BBX 9 14 0 -3
BITMAP
0800
0800
0800
0800
0800
f800
0000
0000
0000
0000
0000
0000
0000
0000
ENDCHAR
STARTCHAR 20c
ENCODING 524
SWIDTH 562 0
DWIDTH 9 0
BBX 9 14 0 -3
BITMAP
0000
0000
0000
0000
0000
f800
0800
0800
0800
0800
0800
0800
0800
0800
ENDCHAR
STARTCHAR 20d
ENCODING 525
SWIDTH 562 0
DWIDTH 9 0
BBX 9 14 0 -3
BITMAP
0000
0000
0000
0000
0000
0f80
0800
0800
0800
0800
0800
0800
0800
0800
ENDCHAR
STARTCHAR 20e
ENCODING 526
SWIDTH 562 0
DWIDTH 9 0
BBX 9 14 0 -3
BITMAP
0800
0800
0800
0800
0800
0f80
0000
0000
0000
0000
0000
0000
0000
0000
ENDCHAR
STARTCHAR 20f
ENCODING 527
SWIDTH 562 0
DWIDTH 9 0
BBX 9 14 0 -3
BITMAP
0800
0800
0800
0800
0800
ff80
0800
0800
0800
0800
0800
0800
0800
0800
ENDCHAR
STARTCHAR 210
ENCODING 528
SWIDTH 562 0
DWIDTH 9 0
BBX 9 14 0 -3
BITMAP
0000
ff80
0000
0000
0000
0000
0000
0000
0000
0000
0000
0000
0000
0000
ENDCHAR
STARTCHAR 211
ENCODING 529
SWIDTH 562 0
DWIDTH 9 0
BBX 9 14 0 -3
BITMAP
0000
0000
0000
ff80
0000
0000
0000
0000
0000
0000
0000
0000
0000
0000
ENDCHAR
STARTCHAR 212
ENCODING 530
SWIDTH 562 0
DWIDTH 9 0
BBX 9 14 0 -3
BITMAP
0000
0000
0000
0000
0000
ff80
0000
0000
0000
0000
0000
0000
0000
0000
ENDCHAR
STARTCHAR 213
ENCODING 531
SWIDTH 562 0
DWIDTH 9 0
BBX 9 14 0 -3
BITMAP
0000
0000
0000
0000
0000
0000
0000
ff80
0000
0000
0000
0000
0000
0000
ENDCHAR
STARTCHAR 214
ENCODING 532
SWIDTH 562 0
DWIDTH 9 0
BBX 9 14 0 -3
BITMAP
0000
0000
0000
0000
0000
0000
0000
0000
0000
ff80
0000
0000
0000
0000
ENDCHAR
STARTCHAR 215
ENCODING 533
SWIDTH 562 0
DWIDTH 9 0
BBX 9 14 0 -3
BITMAP
0800
0800
0800
0800
0800
0f80
0800
0800
0800
0800
0800
0800
0800
0800
ENDCHAR
STARTCHAR 216
ENCODING 534
SWIDTH 562 0
DWIDTH 9 0
BBX 9 14 0 -3
BITMAP
0800
0800
0800
0800
0800
f800
0800
0800
0800
0800
0800
0800
0800
0800
ENDCHAR
STARTCHAR 217
ENCODING 535
SWIDTH 562 0
DWIDTH 9 0
BBX 9 14 0 -3
BITMAP
0800
0800
0800
0800
0800
ff80
0000
0000
0000
0000
0000
0000
0000
0000
ENDCHAR
STARTCHAR 218
ENCODING 536
SWIDTH 562 0
DWIDTH 9 0
BBX 9 14 0 -3
BITMAP
0000
0000
0000
0000
0000
ff80
0800
0800
0800
0800
0800
0800
0800
0800
ENDCHAR
STARTCHAR 219
ENCODING 537
SWIDTH 562 0
DWIDTH 9 0
BBX 9 14 0 -3
BITMAP
0800
0800
0800
0800
0800
0800
0800
0800
0800
0800
0800
0800
0800
0800
ENDCHAR
STARTCHAR 21a
ENCODING 538
SWIDTH 562 0
DWIDTH 9 0
BBX 9 14 0 -3
BITMAP
0000
0000
0000
0600
1800
6000
1800
0600
0000
7e00
0000
0000
0000
0000
ENDCHAR
STARTCHAR 21b
ENCODING 539
SWIDTH 562 0
DWIDTH 9 0
BBX 9 14 0 -3
BITMAP
0000
0000
0000
6000
1800
0600
1800
6000
0000
7e00
0000
0000
0000
0000
ENDCHAR
STARTCHAR 21c
ENCODING 540
SWIDTH 562 0
DWIDTH 9 0
BBX 9 14 0 -3
BITMAP
0000
0000
0000
0000
3f00
1200
1200
1200
1200
1200
2200
0000
0000
0000
ENDCHAR
STARTCHAR 21d
ENCODING 541
SWIDTH 562 0
DWIDTH 9 0
BBX 9 14 0 -3
BITMAP
0000
0000
0000
0200
0400
7e00
0800
1000
7e00
2000
4000
0000
0000
0000
ENDCHAR
STARTCHAR 21e
ENCODING 542
SWIDTH 562 0
DWIDTH 9 0
BBX 9 14 0 -3
BITMAP
0000
0000
1800
2400
2000
2000
7800
2000
2000
7100
6e00
0000
0000
0000
ENDCHAR
STARTCHAR 21f
ENCODING 543
SWIDTH 562 0
DWIDTH 9 0
BBX 9 14 0 -3
BITMAP
0000
0000
0000
0000
0000
0000
1800
1800
0000
0000
0000
0000
0000
0000
ENDCHAR
ENDFONT
